<?xml version="1.0" standalone="no"?>
<!DOCTYPE svg PUBLIC "-//W3C//DTD SVG 20010904//EN"
 "http://www.w3.org/TR/2001/REC-SVG-20010904/DTD/svg10.dtd">
<svg version="1.0" xmlns="http://www.w3.org/2000/svg"
 width="696.000000pt" height="696.000000pt" viewBox="0 0 696.000000 696.000000"
 preserveAspectRatio="xMidYMid meet">
<metadata>
Created by potrace 1.14, written by Peter Selinger 2001-2017
</metadata>
<g transform="translate(0.000000,696.000000) scale(0.100000,-0.100000)"
fill="#000000" stroke="none">
<path d="M3985 5826 c-143 -33 -260 -101 -362 -209 -116 -124 -171 -256 -180
-429 l-6 -107 -56 -6 c-56 -7 -247 -38 -307 -51 l-31 -6 -12 61 c-15 75 -77
201 -130 262 -52 59 -160 133 -233 159 -251 88 -522 -2 -667 -220 -52 -79 -69
-119 -88 -216 -36 -183 25 -370 163 -507 104 -103 248 -161 399 -161 154 1
288 56 404 167 42 40 50 45 36 22 -99 -164 -282 -266 -480 -267 -157 -1 -286
47 -397 151 l-58 53 -28 -18 c-15 -9 -81 -71 -147 -135 l-121 -118 -64 76
c-36 42 -96 113 -133 157 -157 185 -297 425 -362 619 -16 48 -33 87 -36 87 -4
0 -9 -19 -13 -42 -10 -60 -75 -191 -134 -269 -133 -175 -304 -302 -462 -342
l-53 -14 94 -12 c205 -27 396 -80 524 -144 135 -67 323 -221 417 -340 l30 -37
-55 -108 c-66 -128 -119 -277 -149 -416 -18 -83 -22 -134 -22 -291 -1 -185 9
-271 44 -396 l10 -37 163 53 c164 55 527 155 558 155 19 0 25 61 35 390 10
327 -11 328 200 -8 l181 -287 43 2 c23 1 44 3 45 5 2 2 31 156 65 343 34 187
64 342 66 344 6 7 3 13 145 -316 l134 -312 52 -1 c46 0 53 3 58 23 3 12 30
162 60 332 31 171 59 318 63 329 6 13 46 -69 152 -314 79 -183 148 -333 154
-335 6 -2 157 -6 336 -9 557 -9 1013 -67 1550 -197 168 -40 524 -146 668 -199
l80 -29 21 87 c58 240 61 463 12 691 -63 288 -218 576 -440 814 l-44 48 44 45
c185 190 484 385 726 474 73 26 76 29 48 35 -153 35 -300 122 -432 256 -115
117 -172 205 -209 323 l-19 59 -17 -139 c-42 -338 -141 -576 -325 -774 l-63
-68 -93 62 c-170 116 -477 271 -485 246 -3 -7 -22 -47 -43 -89 -86 -171 -233
-295 -419 -353 -62 -19 -97 -23 -200 -23 -111 0 -135 3 -214 29 -82 27 -214
101 -244 138 -6 8 30 -6 81 -32 116 -57 193 -75 322 -74 191 2 336 64 475 203
139 140 200 285 200 481 0 308 -192 569 -485 660 -89 28 -255 36 -340 16z
m304 -171 c179 -42 330 -190 377 -369 19 -70 18 -210 -2 -277 -39 -134 -150
-267 -269 -323 -63 -30 -169 -56 -230 -56 -226 0 -443 168 -500 385 -20 77
-19 207 1 276 80 273 347 429 623 364z m-1602 -345 c130 -45 232 -157 267
-295 79 -302 -174 -583 -482 -535 -142 22 -261 113 -325 247 -30 64 -32 75
-32 178 0 103 2 114 32 178 98 207 324 302 540 227z"/>
<path d="M4050 5604 c-100 -36 -183 -120 -216 -218 -25 -73 -16 -205 18 -271
133 -259 505 -254 629 8 38 81 41 194 7 284 -26 69 -100 148 -173 183 -66 31
-198 38 -265 14z"/>
<path d="M2475 5246 c-150 -70 -209 -244 -134 -395 51 -102 136 -153 257 -153
167 -1 283 116 283 285 0 120 -50 205 -152 256 -81 41 -177 43 -254 7z"/>
<path d="M3350 2944 c-633 -25 -1220 -108 -1799 -254 -200 -50 -487 -133 -497
-143 -20 -20 121 -308 213 -436 81 -114 266 -308 378 -397 437 -352 1003 -572
1639 -639 190 -20 562 -20 751 0 434 46 820 156 1173 336 421 215 760 525 944
866 54 100 112 232 104 240 -18 18 -660 198 -675 189 -5 -3 -93 -161 -196
-351 -103 -190 -191 -347 -195 -350 -11 -7 -12 -2 -70 405 -28 195 -55 364
-59 374 -6 15 -34 -29 -126 -200 -197 -365 -237 -435 -242 -430 -3 2 -29 167
-58 366 -29 199 -55 363 -57 365 -2 1 -16 5 -33 9 l-30 6 -134 -316 c-74 -173
-138 -317 -142 -320 -4 -2 -28 85 -54 194 -26 108 -62 257 -79 330 -19 80 -38
137 -47 142 -15 9 -566 20 -709 14z"/>
</g>
</svg>
