<?xml version="1.0" encoding="UTF-8"?>
<svg id="Calque_2" data-name="Calque 2" xmlns="http://www.w3.org/2000/svg" xmlns:xlink="http://www.w3.org/1999/xlink" viewBox="0 0 508.86 627.93">
  <defs>
    <style>
      .cls-1 {
        clip-path: url(#clippath-1);
      }

      .cls-1, .cls-2, .cls-3 {
        fill: none;
      }

      .cls-4 {
        fill: #005a21;
      }

      .cls-5, .cls-6 {
        fill: #fff;
      }

      .cls-7 {
        fill: #7f4d2a;
      }

      .cls-8 {
        fill: #81006e;
      }

      .cls-9 {
        fill: #a06c3a;
      }

      .cls-10 {
        fill: #8f0049;
      }

      .cls-11 {
        fill: #b4ca00;
      }

      .cls-12 {
        fill: #b95926;
      }

      .cls-13 {
        fill: #bd8d54;
      }

      .cls-14 {
        fill: #e03716;
      }

      .cls-15 {
        fill: #d6d800;
      }

      .cls-16 {
        fill: #b09db4;
      }

      .cls-17 {
        fill: #ca0041;
      }

      .cls-18 {
        fill: #d90011;
      }

      .cls-19 {
        fill: #161615;
      }

      .cls-20 {
        fill: #187c24;
      }

      .cls-21 {
        fill: #0d6d20;
      }

      .cls-22 {
        fill: #0d8928;
      }

      .cls-23 {
        fill: #1a992b;
      }

      .cls-24 {
        fill: #552d0f;
      }

      .cls-25 {
        fill: #9c000b;
      }

      .cls-26 {
        fill: #85b819;
      }

      .cls-27 {
        fill: #58a321;
      }

      .cls-28 {
        fill: #76b31d;
      }

      .cls-29 {
        fill: #4b414e;
      }

      .cls-30 {
        fill: #61270e;
      }

      .cls-31 {
        fill: #50280d;
      }

      .cls-32 {
        fill: #521170;
      }

      .cls-2 {
        stroke: #7d7080;
        stroke-linecap: round;
        stroke-miterlimit: 10;
        stroke-width: 1.59px;
      }

      .cls-6 {
        opacity: .16;
      }

      .cls-3 {
        clip-path: url(#clippath);
      }
    </style>
    <symbol id="Herbe_1" data-name="Herbe 1" viewBox="0 0 28.9 44.07">
      <g>
        <g>
          <path class="cls-27" d="m13.49,40.74S18.23,25.17,11.39,0c12.34,22.34,4.51,35.95,2.1,40.74Z"/>
          <path class="cls-22" d="m11.13,37.62s1.33-11.64-11.13-20.48c10.77,11.43,8.97,20.98,10.32,26.92l.82-6.44Z"/>
          <path class="cls-21" d="m19.72,39.82s-2.42-11.58,5.65-16.97c-1.65,3.97-4.15,9.38-5.65,16.97Z"/>
          <path class="cls-4" d="m22.13,40.11s-.16-7.89,4.92-9.73c1.02-.82-1.48,4.64-4.92,9.73Z"/>
          <path class="cls-21" d="m10.72,28.99s3.83-7.92-7.07-21.66c2.73,6.06,5.98,13.91,7.07,21.66Z"/>
        </g>
        <path class="cls-22" d="m19.62,25.76s.53-19.36,9.28-22.28c-5.04,8.22-6.36,12.73-9.28,22.28Z"/>
      </g>
    </symbol>
    <symbol id="Herbe_4" data-name="Herbe 4" viewBox="0 0 44.77 23.83">
      <g>
        <path class="cls-23" d="m30.51,17.44l1.52.94s-.35-14.75.58-18.37c0,0-2.57,7.14-2.11,17.44Z"/>
        <path class="cls-23" d="m33.79,17.2l1.17-.82s-.23-11.59.23-12.76c0,0-1.75,8.66-1.4,13.58Z"/>
        <path class="cls-23" d="m23.52,22.54l-1.32-.82s.26-11.59-.26-12.76c0,0,1.98,8.66,1.58,13.58Z"/>
        <path class="cls-28" d="m37.65,17.67l.82-.82.12-9.6s-1.29,7.61-.94,10.42Z"/>
        <path class="cls-20" d="m28.76,17.67s0-9.59-1.05-11.94c0,0,0,9.01-.35,10.77l1.4,1.17Z"/>
        <path class="cls-20" d="m44.77,21.55s0-9.6-1.05-11.94c0,0,0,9.01-.35,10.77l1.4,1.17Z"/>
        <path class="cls-20" d="m35.54,19.19s1.05-6.9,3.86-8.66c0,0-3.04,6.08-2.69,9.6l-1.17-.94Z"/>
        <path class="cls-20" d="m35.42,19.56s1.05-6.9,3.86-8.66c0,0-3.04,6.09-2.69,9.6l-1.17-.94Z"/>
        <path class="cls-28" d="m33.67,17.34s.12-8.31-2.34-10.3c0,0,1.64,7.96,1.17,11.94l1.17-1.64Z"/>
        <path class="cls-23" d="m28.52,19.9s-.35-9.48,1.17-13.34c0,0-.58,12.75,0,14.98l-1.17-1.64Z"/>
        <path class="cls-28" d="m26.41,15.97s.12-6.55-.58-9.13c0,0-.12,9.95-.82,12.76l1.41-3.63Z"/>
        <path class="cls-23" d="m27.24,19.78s-.59-6.44-3.75-9.25c0,0,3.28,8.31,2.81,11l.94-1.75Z"/>
        <path class="cls-23" d="m43.12,18.08s-.59-6.44-3.74-9.25c0,0,3.28,8.31,2.81,11l.94-1.75Z"/>
        <path class="cls-23" d="m39.06,19.08s-.35-2.57,1.4-4.91c0,0-.82,5.73-.35,7.61l-1.05-2.69Z"/>
        <path class="cls-20" d="m38.33,20.54s0-7.52,2.06-10.31c0,0-1.58,9.58-1.09,13.22l-.97-2.91Z"/>
        <path class="cls-28" d="m25.11,18.26s-1.25-10.49-1.91-11.49c0,0,.83,10.93.32,12.98l1.59-1.5Z"/>
        <path class="cls-28" d="m34.33,19.81s.85-8.85,2.06-11.4c0,0-.49,7.16-.49,9.1l-1.58,2.3Z"/>
        <path class="cls-28" d="m40.52,20.29s.85-8.85,2.06-11.4c0,0-.49,7.16-.49,9.1l-1.58,2.3Z"/>
        <path class="cls-28" d="m29.6,17.75s1.34-10.31.37-13.71c0,0,1.94,10.19.97,15.53l-1.34-1.82Z"/>
        <path class="cls-23" d="m3.16,17.99l-1.52.77s.35-12.05-.59-15.02c0,0,2.57,5.83,2.11,14.25Z"/>
        <path class="cls-23" d="m11.51,17.58l1.17-1.04s-.23-14.78.23-16.27c0,0-1.75,11.05-1.4,17.32Z"/>
        <path class="cls-23" d="m10.16,22.92l1.32-.82s-.26-11.59.26-12.76c0,0-1.98,8.66-1.58,13.58Z"/>
        <path class="cls-28" d="m15.37,18.05l.82-.82.12-9.6s-1.29,7.61-.94,10.42Z"/>
        <path class="cls-20" d="m4.91,18.05s0-9.6,1.05-11.93c0,0,0,9.01.35,10.76l-1.41,1.17Z"/>
        <path class="cls-20" d="m22.49,21.93s0-9.59-1.05-11.94c0,0,0,9.01-.35,10.77l1.4,1.17Z"/>
        <path class="cls-20" d="m13.27,19.57s1.05-6.9,3.86-8.66c0,0-3.04,6.09-2.69,9.6l-1.17-.94Z"/>
        <path class="cls-28" d="m0,17.72S-.11,9.41,2.34,7.42c0,0-1.64,7.96-1.17,11.94L0,17.72Z"/>
        <path class="cls-23" d="m5.15,20.28s.35-9.48-1.17-13.34c0,0,.58,12.76,0,14.98l1.17-1.64Z"/>
        <path class="cls-28" d="m7.26,16.35s-.12-6.55.59-9.13c0,0,.12,9.95.82,12.76l-1.4-3.63Z"/>
        <path class="cls-23" d="m20.85,18.46s-.59-6.44-3.74-9.25c0,0,3.28,8.31,2.81,11l.94-1.76Z"/>
        <path class="cls-23" d="m16.78,19.46s-.35-2.57,1.4-4.91c0,0-.82,5.73-.35,7.61l-1.05-2.69Z"/>
        <path class="cls-20" d="m16.06,20.92s0-7.52,2.06-10.31c0,0-1.58,9.58-1.09,13.22l-.97-2.91Z"/>
        <path class="cls-28" d="m8.56,18.64s1.25-10.49,1.91-11.49c0,0-.84,10.93-.32,12.98l-1.6-1.5Z"/>
        <path class="cls-28" d="m12.06,20.19s.85-8.85,2.06-11.4c0,0-.49,7.16-.49,9.1l-1.58,2.3Z"/>
        <path class="cls-28" d="m18.24,20.68s.85-8.86,2.06-11.4c0,0-.49,7.16-.49,9.1l-1.58,2.3Z"/>
        <path class="cls-28" d="m4.07,18.13s-1.34-10.31-.37-13.71c0,0-1.94,10.19-.97,15.53l1.33-1.82Z"/>
        <path class="cls-20" d="m10.12,19.94s-1.05-6.91-3.86-8.66c0,0,3.04,6.08,2.69,9.6l1.17-.94Z"/>
        <path class="cls-23" d="m16.83,20.16s-.59-6.44-3.75-9.25c0,0,3.28,8.31,2.81,11l.94-1.75Z"/>
      </g>
    </symbol>
    <clipPath id="clippath">
      <path class="cls-8" d="m331.27,247.27c-5.46,4.24-7.01,7.71-7.35,10.17-.13.93-.26,3.02-1.66,5.15-1.06,1.61-2.27,2.37-3.1,3.02-2.53,1.98-3.47,4.47-5.23,8.83-6.03,14.93-6.8,14.88-8.74,21.56-5.56,19.11-.26,23.77-4.95,42.56-4.77,19.11-12.81,26.19-8.91,31.18,2.33,2.98,6.06,1.54,30.68.99,17.58-.39,22.16.19,24.25.49,11.42,1.65,11.5,3.83,20.29,3.96,11.52.17,22.27-2.97,22.27-2.97,2.97-.87,4.34-1.49,7.42-1.98,9.1-1.45,12.23,1.54,14.85,0,3.12-1.84,3.73-8.64-5.44-46.52-5-20.65-5.16-18.57-6.68-26.97-1.46-8.09-5.06-15.8-5.69-24-.15-1.95-.3-5.91-2.97-7.92-1.35-1.01-2.84-1.16-3.71-2.72-.89-1.6-.36-3.3-.25-4.21.29-2.35-1.4-6.05-10.6-11.86-3.08,9.27-11.47,15.75-21.07,16.31-10.11.59-19.61-5.5-23.4-15.07Z"/>
    </clipPath>
    <clipPath id="clippath-1">
      <path class="cls-24" d="m381.18,217.37c-1.02,5.2-20.59,5.24-27.34,5.26-6.39.01-26.79.06-27.83-5.26-.92-4.69,13.17-13.92,27.59-13.92,14.43,0,28.5,9.24,27.59,13.92Z"/>
    </clipPath>
  </defs>
  <g id="Calque_1-2" data-name="Calque 1">
    <rect class="cls-5" x="188.57" width="43.24" height="11.63"/>
    <polyline class="cls-12" points="103.75 17.9 97.16 25.14 101.27 52.46 109.79 47.79 108.84 589.13 111.72 577.24 116.37 19.87 103.75 17.9"/>
    <path class="cls-30" d="m113.39,25.14c-2.11,262.47-4.32,536.12-4.54,563.99h-11.68V25.14h4.19v23.37l1.19-23.37h3.28l.74,8.06,1.04-8.06h5.77"/>
    <polyline class="cls-30" points="508.86 11.63 508.86 34.91 0 34.91 0 11.63 508.86 11.63"/>
    <path class="cls-31" d="m378.45,32.49s0,0,0,0c7.65-1,8.95-1.96,12.01-2.75.04-.46.19-.87.45-1.22-3.56.37-6.88.76-9.87,1.19h0s-5.57.29-15.37.57c-9.8.29-23.87.57-40.93.57-9.44,0-19.8-.09-30.87-.31-3-.71-6.13-1.44-9.45-2.14,27.39,1.03,47.49,1.44,62.92,1.44,21.28,0,33.7-.79,44.15-1.83.33-.17.74-.3,1.28-.34,1.89-.14,3.68-.26,5.35-.37,16.86-1.92,32.38-4.25,80.32-4.42v1.5c-5.37.1-10.84.22-16.34.36,5.08.18,10.52.43,16.34.76v1.77c-13.44-.51-28.04-.86-43.09-.88-16.71.6-31.82,1.76-42.35,3.82-1.2.61-1.95,1.18-2.42,1.64-.04-.35-.09-.73-.13-1.1-.79.18-1.56.36-2.28.55-.01,0-2.81.6-3.54.72,0,0-2.16.32-2.3.33,0,0-1.37.05-3.88.14h0m38.59-5.94c-2.82.07-13.17.83-16.34,1.08-.91.21-1.74.43-2.51.65,5.23-.75,11.64-1.32,18.85-1.73m-76.46,2.82c-18.02,0-38.98-.81-61.76-2.08-5.68-1.05-11.93-1.95-19.01-2.5,34.31,2.09,64.51,3.59,87.44,3.59,8.73,0,16.42-.22,22.87-.71,37.24-3.19-22.63-8.4,108.33-8.7v.63c-41.76,1.07-73.24,3.99-101.04,8.05-10.07,1.2-22.52,1.71-36.82,1.71m-144.82-4.3c-13.67-1.31-27.5-2.9-41.25-4.82-4.33-.58-9.1-1.45-14.77-2.41-33.35-2.21-66.36-4.06-96.69-4.78v-.03c29.74.74,60.62,2.19,91.16,3.91-1-.15-2.03-.31-3.09-.48-72.74-3.21-82.17-3.77-85.29-3.77-.97,0-1.33.05-2.77.1v-1.16c12.96.1,15.49.11,15.63.12,2.05-.05,4.12-.09,6.21-.12h14.83c4.99.07,9.95.22,14.77.46,15.95.39,22.29,1.06,33.28,2.13,0,0,10.81,1.64,26.47,3.26-5.14-.23-10.39-.46-15.78-.7,1.47.21,2.94.43,4.44.65,38.69,2.25,76.62,4.86,110.77,6.98-6.78-.32-13.54-.45-20.2-.45-2.06,0-4.11.01-6.15.04-24.78-1.73-50.6-3.65-76.37-5.41,14.6,2.07,31.68,4.25,55.48,5.98-3.65.15-7.22.32-10.68.49"/>
    <g>
      <rect class="cls-13" x="349.86" y="11.63" width="8.85" height="154.3"/>
      <path class="cls-9" d="m358.03,22.44l-7.41,3.01c-.66.27-1.21.05-1.23-.48v-.45c-.03-.53.5-1.19,1.17-1.46l7.41-3.01c.66-.27,1.21-.05,1.23.48v.45c.03.53-.5,1.19-1.17,1.46Z"/>
      <path class="cls-9" d="m358.03,16.81l-7.41,3.01c-.66.27-1.21.05-1.23-.48v-.45c-.03-.53.5-1.19,1.17-1.46l7.41-3.01c.66-.27,1.21-.05,1.23.48v.45c.03.53-.5,1.19-1.17,1.46Z"/>
      <path class="cls-9" d="m358.71,11.63c-3.7.1-5.72.86-6.9,1.6-.4.25-1.89,1.24-2.31.85-.1-.09-.12-.24-.12-.36v-.45c-.03-.3-.05-1.09.48-1.63.22-.23.46-.33.59-.38,1.08-.43,2.41-.36,3.47-.37,2.21-.03,2.8-.42,3.89.12.41.2.7.45.9.63Z"/>
      <path class="cls-9" d="m358.03,28.07l-7.41,3.01c-.66.27-1.21.05-1.23-.48v-.45c-.03-.53.5-1.19,1.17-1.46l7.41-3.01c.66-.27,1.21-.05,1.23.48v.45c.03.53-.5,1.19-1.17,1.46Z"/>
      <path class="cls-9" d="m358.03,33.7l-7.41,3.01c-.66.27-1.21.05-1.23-.48v-.45c-.03-.53.5-1.19,1.17-1.46l7.41-3.01c.66-.27,1.21-.05,1.23.48v.45c.03.53-.5,1.19-1.17,1.46Z"/>
      <path class="cls-9" d="m358.03,39.33l-7.41,3.01c-.66.27-1.21.05-1.23-.48v-.45c-.03-.53.5-1.19,1.17-1.46l7.41-3.01c.66-.27,1.21-.05,1.23.48v.45c.03.53-.5,1.19-1.17,1.46Z"/>
      <path class="cls-9" d="m358.03,44.96l-7.41,3.01c-.66.27-1.21.05-1.23-.48v-.45c-.03-.53.5-1.19,1.17-1.46l7.41-3.01c.66-.27,1.21-.05,1.23.48v.45c.03.53-.5,1.19-1.17,1.46Z"/>
      <path class="cls-9" d="m358.03,50.59l-7.41,3.01c-.66.27-1.21.05-1.23-.48v-.45c-.03-.53.5-1.19,1.17-1.46l7.41-3.01c.66-.27,1.21-.05,1.23.48v.45c.03.53-.5,1.19-1.17,1.46Z"/>
      <path class="cls-9" d="m358.03,56.22l-7.41,3.01c-.66.27-1.21.05-1.23-.48v-.45c-.03-.53.5-1.19,1.17-1.46l7.41-3.01c.66-.27,1.21-.05,1.23.48v.45c.03.53-.5,1.19-1.17,1.46Z"/>
      <path class="cls-9" d="m358.03,61.85l-7.41,3.01c-.66.27-1.21.05-1.23-.48v-.45c-.03-.53.5-1.19,1.17-1.46l7.41-3.01c.66-.27,1.21-.05,1.23.48v.45c.03.53-.5,1.19-1.17,1.46Z"/>
      <path class="cls-9" d="m358.03,67.47l-7.41,3.01c-.66.27-1.21.05-1.23-.48v-.45c-.03-.53.5-1.19,1.17-1.46l7.41-3.01c.66-.27,1.21-.05,1.23.48v.45c.03.53-.5,1.19-1.17,1.46Z"/>
      <path class="cls-9" d="m358.03,73.1l-7.41,3.01c-.66.27-1.21.05-1.23-.48v-.45c-.03-.53.5-1.19,1.17-1.46l7.41-3.01c.66-.27,1.21-.05,1.23.48v.45c.03.53-.5,1.19-1.17,1.46Z"/>
      <path class="cls-9" d="m358.03,78.73l-7.41,3.01c-.66.27-1.21.05-1.23-.48v-.45c-.03-.53.5-1.19,1.17-1.46l7.41-3.01c.66-.27,1.21-.05,1.23.48v.45c.03.53-.5,1.19-1.17,1.46Z"/>
      <path class="cls-9" d="m358.03,84.36l-7.41,3.01c-.66.27-1.21.05-1.23-.48v-.45c-.03-.53.5-1.19,1.17-1.46l7.41-3.01c.66-.27,1.21-.05,1.23.48v.45c.03.53-.5,1.19-1.17,1.46Z"/>
      <path class="cls-9" d="m358.03,89.99l-7.41,3.01c-.66.27-1.21.05-1.23-.48v-.45c-.03-.53.5-1.19,1.17-1.46l7.41-3.01c.66-.27,1.21-.05,1.23.48v.45c.03.53-.5,1.19-1.17,1.46Z"/>
      <path class="cls-9" d="m358.03,95.62l-7.41,3.01c-.66.27-1.21.05-1.23-.48v-.45c-.03-.53.5-1.19,1.17-1.46l7.41-3.01c.66-.27,1.21-.05,1.23.48v.45c.03.53-.5,1.19-1.17,1.46Z"/>
      <path class="cls-9" d="m358.03,101.25l-7.41,3.01c-.66.27-1.21.05-1.23-.48v-.45c-.03-.53.5-1.19,1.17-1.46l7.41-3.01c.66-.27,1.21-.05,1.23.48v.45c.03.53-.5,1.19-1.17,1.46Z"/>
      <path class="cls-9" d="m358.03,106.88l-7.41,3.01c-.66.27-1.21.05-1.23-.48v-.45c-.03-.53.5-1.19,1.17-1.46l7.41-3.01c.66-.27,1.21-.05,1.23.48v.45c.03.53-.5,1.19-1.17,1.46Z"/>
      <path class="cls-9" d="m358.03,112.51l-7.41,3.01c-.66.27-1.21.05-1.23-.48v-.45c-.03-.53.5-1.19,1.17-1.46l7.41-3.01c.66-.27,1.21-.05,1.23.48v.45c.03.53-.5,1.19-1.17,1.46Z"/>
      <path class="cls-9" d="m358.03,118.13l-7.41,3.01c-.66.27-1.21.05-1.23-.48v-.45c-.03-.53.5-1.19,1.17-1.46l7.41-3.01c.66-.27,1.21-.05,1.23.48v.45c.03.53-.5,1.19-1.17,1.46Z"/>
      <path class="cls-9" d="m358.03,123.76l-7.41,3.01c-.66.27-1.21.05-1.23-.48v-.45c-.03-.53.5-1.19,1.17-1.46l7.41-3.01c.66-.27,1.21-.05,1.23.48v.45c.03.53-.5,1.19-1.17,1.46Z"/>
      <path class="cls-9" d="m358.03,129.39l-7.41,3.01c-.66.27-1.21.05-1.23-.48v-.45c-.03-.53.5-1.19,1.17-1.46l7.41-3.01c.66-.27,1.21-.05,1.23.48v.45c.03.53-.5,1.19-1.17,1.46Z"/>
      <path class="cls-9" d="m358.03,135.02l-7.41,3.01c-.66.27-1.21.05-1.23-.48v-.45c-.03-.53.5-1.19,1.17-1.46l7.41-3.01c.66-.27,1.21-.05,1.23.48v.45c.03.53-.5,1.19-1.17,1.46Z"/>
      <path class="cls-9" d="m358.57,137.83l-7.63,4.09c-.68.37-1.41-.31-1.61-1.52l-.18-1.02c-.21-1.2.18-2.48.86-2.84l7.63-4.09c.68-.37,1.41.31,1.61,1.52l.18,1.02c.21,1.2-.18,2.48-.86,2.84Z"/>
      <path class="cls-9" d="m358.57,148.01l-7.63,4.09c-.68.37-1.41-.31-1.61-1.52l-.18-1.02c-.21-1.2.18-2.48.86-2.84l7.63-4.09c.68-.37,1.41.31,1.61,1.52l.18,1.02c.21,1.2-.18,2.48-.86,2.84Z"/>
      <path class="cls-9" d="m358.57,158.2l-7.63,4.09c-.68.37-1.41-.31-1.61-1.52l-.18-1.02c-.21-1.2.18-2.48.86-2.84l7.63-4.09c.68-.37,1.41.31,1.61,1.52l.18,1.02c.21,1.2-.18,2.48-.86,2.84Z"/>
    </g>
    <g>
      <g>
        <path class="cls-31" d="m111.81,157.71l-6.12,4.07s26.25-34.6,62.65-67.54c36.4-32.95,69.6-56.88,69.6-56.88l-14.28-16.53,6.29-8.37,4.85-.82,12.6,20.56.58,6.88-77.51,51.78c-2.11,1.41-4.05,3.13-5.69,5.04l-52.98,61.8"/>
        <path class="cls-30" d="m243.14,29.88c.35.42.5.56,1.55,1.71.66.72,1.19,1.31,1.55,1.71-.25,1.96-.5,3.89-.76,5.81-30.97,20.58-60.51,43.82-87.96,69.24-3.5,3.24-6.97,6.52-10.4,9.83-14.47,13.95-28.31,28.51-41.43,43.6-1.47-1.37-2.96-2.74-4.47-4.12-2.87-2.62-5.73-5.17-8.58-7.66.3-.81.62-1.9.76-3.23.15-1.42.05-2.64-.09-3.53,0,1.05-.17,2.55-.9,4.16-.24.53-.51,1-.78,1.4-.1-.09-1.2-1.11-1.3-1.2-2.48-2.28-5.36-4.94-7.83-7.23,2.81-2.46,5.62-4.91,8.44-7.37-.58-.34-1.17-.67-1.76-1.01,1.91-1.36,3.8-2.73,5.7-4.1,15.51-13.39,31.05-26.76,46.62-40.11,6.07-5.21,12.16-10.42,18.24-15.62,0,0,1.94-1.28,4.77-3.31,5.43-3.91,14.15-10.66,18.84-16.85,7.12-9.54,46.56-39.73,46.61-39.56,1.87,2.76,3.74,5.52,5.61,8.29-2.28,1.79-4.57,3.58-6.85,5.39,2.48-1.52,4.96-3.02,7.45-4.51.7,1.05,1.41,2.09,2.12,3.14,1.6.8,2.52,1.74,3.06,2.46.66.88.74,1.39,1.79,2.65Z"/>
        <polygon class="cls-31" points="243.14 29.88 220.21 49.68 243.95 30.81 243.14 29.88 243.14 29.88"/>
        <path class="cls-31" d="m216.67,54.7c-3.11,2.68-10.19,4.92-27.89,17.78-1.67,1.21-3.53,2.68-5.53,4.37.15-.36.19-.6.09-.71-.78-.91-4.47,1.91-9.58,6.32-2.15,1.86-4.56,4-7.1,6.26-2.55,2.26-5.23,4.65-7.95,7-9.14,7.89-18.63,15.36-24.26,16.32-5.76.98,7.71-11.76,24.46-26.22,20.9-18.05,46.89-38.77,46.89-38.77h0s-15.07,7.97-34.2,20.11c20.89-18.89,38.18-34.67,38.4-35.34.04-.13.13-.25.25-.35,1.43-1.24,7.86-.33,6.35,4.33-1.64,5.04,11,3.18,7.39,6.3s-3.75,7.59-6.07,11.22c-.32.51-.72.95-1.23,1.39"/>
      </g>
      <g>
        <path class="cls-29" d="m234.13,25.07c0,2.61-2.11,4.72-4.72,4.72s-4.72-2.11-4.72-4.72,2.11-4.72,4.72-4.72,4.72,2.11,4.72,4.72h0Z"/>
        <g>
          <path class="cls-16" d="m233.57,25.07c0,2.61-2.11,4.72-4.72,4.72s-4.72-2.11-4.72-4.72,2.11-4.72,4.72-4.72,4.72,2.11,4.72,4.72h0Z"/>
          <line class="cls-2" x1="227.11" y1="23.3" x2="230.64" y2="26.83"/>
          <line class="cls-2" x1="230.61" y1="23.28" x2="227.08" y2="26.81"/>
        </g>
      </g>
      <g>
        <path class="cls-29" d="m110.03,138.14c0,2.61-2.11,4.72-4.72,4.72s-4.72-2.11-4.72-4.72,2.11-4.72,4.72-4.72,4.72,2.11,4.72,4.72h0Z"/>
        <g>
          <path class="cls-16" d="m109.47,138.14c0,2.61-2.11,4.72-4.72,4.72s-4.72-2.11-4.72-4.72,2.11-4.72,4.72-4.72,4.72,2.11,4.72,4.72h0Z"/>
          <line class="cls-2" x1="103.01" y1="136.38" x2="106.54" y2="139.91"/>
          <line class="cls-2" x1="106.52" y1="136.36" x2="102.99" y2="139.89"/>
        </g>
      </g>
    </g>
    <g>
      <path class="cls-29" d="m113.41,24.44c0,2.61-2.11,4.72-4.72,4.72s-4.72-2.11-4.72-4.72,2.11-4.72,4.72-4.72,4.72,2.11,4.72,4.72h0Z"/>
      <path class="cls-16" d="m112.85,24.44c0,2.61-2.11,4.72-4.72,4.72s-4.72-2.11-4.72-4.72,2.11-4.72,4.72-4.72,4.72,2.11,4.72,4.72h0Z"/>
      <line class="cls-2" x1="106.39" y1="22.68" x2="109.92" y2="26.21"/>
      <line class="cls-2" x1="109.9" y1="22.66" x2="106.37" y2="26.19"/>
    </g>
    <use width="44.77" height="23.83" transform="translate(51.5 547.09) scale(2.31 2.96)" xlink:href="#Herbe_4"/>
    <use width="44.77" height="23.83" transform="translate(86.58 548.71) scale(2.31 2.96)" xlink:href="#Herbe_4"/>
    <use width="28.9" height="44.07" transform="translate(125.52 497.11) scale(1.95)" xlink:href="#Herbe_1"/>
    <path class="cls-5" d="m198.44,627.93H41.57v-37.07c21.42,10.22,47.96,18.54,78.43,18.54s57.01-8.32,78.43-18.54v37.07Z"/>
  </g>
  <g id="Calque_8" data-name="Calque 8">
    <g>
      <g>
        <path class="cls-11" d="m396.62,291.2c6.1,21.82,9.98,59.49-6.82,69.62-5.92,3.57-8.95.42-35.13,0-27.91-.45-31.38,3.01-37.61-.99-16.83-10.81-11.4-48.8-5.75-68.63,1.51-5.31,16.67-58.47,42.66-58.49,25.75-.01,40.9,52.19,42.66,58.49Z"/>
        <g>
          <path class="cls-8" d="m331.27,247.27c-5.46,4.24-7.01,7.71-7.35,10.17-.13.93-.26,3.02-1.66,5.15-1.06,1.61-2.27,2.37-3.1,3.02-2.53,1.98-3.47,4.47-5.23,8.83-6.03,14.93-6.8,14.88-8.74,21.56-5.56,19.11-.26,23.77-4.95,42.56-4.77,19.11-12.81,26.19-8.91,31.18,2.33,2.98,6.06,1.54,30.68.99,17.58-.39,22.16.19,24.25.49,11.42,1.65,11.5,3.83,20.29,3.96,11.52.17,22.27-2.97,22.27-2.97,2.97-.87,4.34-1.49,7.42-1.98,9.1-1.45,12.23,1.54,14.85,0,3.12-1.84,3.73-8.64-5.44-46.52-5-20.65-5.16-18.57-6.68-26.97-1.46-8.09-5.06-15.8-5.69-24-.15-1.95-.3-5.91-2.97-7.92-1.35-1.01-2.84-1.16-3.71-2.72-.89-1.6-.36-3.3-.25-4.21.29-2.35-1.4-6.05-10.6-11.86-3.08,9.27-11.47,15.75-21.07,16.31-10.11.59-19.61-5.5-23.4-15.07Z"/>
          <g class="cls-3">
            <circle class="cls-10" cx="316.48" cy="284.76" r="10.17"/>
            <circle class="cls-10" cx="349.25" cy="274.86" r="10.17"/>
            <circle class="cls-10" cx="374.96" cy="308.03" r="5.09"/>
            <circle class="cls-10" cx="330.12" cy="339.42" r="5.09"/>
            <circle class="cls-10" cx="338.09" cy="311.65" r="7.12"/>
            <circle class="cls-10" cx="381.26" cy="372.77" r="7.12"/>
            <circle class="cls-17" cx="378.55" cy="284.16" r="5.09"/>
            <circle class="cls-17" cx="307.66" cy="342.18" r="5.09"/>
            <circle class="cls-17" cx="352.7" cy="354.8" r="5.09"/>
            <circle class="cls-17" cx="381.89" cy="335.66" r="5.09"/>
            <circle class="cls-32" cx="323.84" cy="289.03" r="5.09"/>
            <circle class="cls-32" cx="348.17" cy="319.94" r="8.51"/>
            <circle class="cls-32" cx="404.4" cy="323.91" r="4.54"/>
            <circle class="cls-32" cx="302.65" cy="335.09" r="6.64"/>
          </g>
        </g>
      </g>
      <g>
        <path class="cls-26" d="m415.2,191.83c0,30.75-27.58,55.67-61.61,55.67s-61.61-24.92-61.61-55.67,27.58-55.67,61.61-55.67c17.72,0,31.18,7.26,36.47,10.79,1.12.75,25.14,17.69,25.14,44.88Z"/>
        <path class="cls-26" d="m425.2,119.6c-1.7-.55-3.28.79-18.89,18.01-17.17,18.92-19.06,21.48-18.14,24.22,2.25,6.78,20.28,10.55,31.42,3.34,16.82-10.88,12.56-43.31,5.61-45.57Z"/>
        <path class="cls-26" d="m287.17,114.03c3.38-.7,4.91,6.97,18.96,23.45,12.41,14.55,18.55,17.17,17.61,22.09-1.57,8.22-21.46,15.6-33.23,9.04-18.75-10.45-10.99-53-3.34-54.58Z"/>
        <g>
          <path class="cls-24" d="m381.18,217.37c-1.02,5.2-20.59,5.24-27.34,5.26-6.39.01-26.79.06-27.83-5.26-.92-4.69,13.17-13.92,27.59-13.92,14.43,0,28.5,9.24,27.59,13.92Z"/>
          <g class="cls-1">
            <ellipse class="cls-25" cx="353.6" cy="220.9" rx="17.54" ry="7.05"/>
            <path class="cls-5" d="m368.76,200.96c-1.3-.34-2.73.33-3.86,1.46-.47-1.42-1.35-2.57-2.57-2.89-1.71-.45-3.66.86-4.85,2.69-.72-1.99-2.23-3.66-3.96-3.66-1.47,0-2.79,1.22-3.6,2.81-1.01-1.32-2.4-2.2-3.77-2.01-1.62.24-2.84,1.93-3.33,3.88-1.01-1.33-2.41-2.23-3.79-2.03-2.4.35-3.93,3.89-3.47,6.72.41,2.56,2.46,4.71,5.24,5.46,1.67-1.03,2.82-2.59,3.28-4.3.94,1.14,2.26,2.02,3.83,2.44,1.19-.73,2.11-1.73,2.72-2.86.74.91,1.72,1.67,2.88,2.18,1.38-.6,2.5-1.55,3.27-2.68.47,1.23,1.3,2.37,2.43,3.26,1.56-.24,2.93-.93,3.98-1.9.46,1.26,1.3,2.42,2.46,3.33,2.85-.44,5.12-2.35,5.81-4.84.77-2.77-.36-6.45-2.7-7.07Z"/>
          </g>
        </g>
        <path class="cls-15" d="m306.59,148.13c-.07-2.4-1.16-3.22-7.24-11.47-7.02-9.54-8.6-12.58-10.31-12.15-2.11.52-2.48,5.8-2.72,9.62-.32,5.19-1.58,25.45,5.77,27.67,5.36,1.62,14.69-6.5,14.5-13.66Z"/>
        <path class="cls-15" d="m403.2,147.49c.42-2.36,1.63-3.02,8.85-10.28,8.35-8.4,10.36-11.17,12-10.5,2.01.83,1.6,6.11,1.27,9.91-.45,5.18-2.19,25.4-9.79,26.52-5.54.81-13.57-8.6-12.32-15.65Z"/>
        <ellipse class="cls-15" cx="353.6" cy="177.55" rx="18.51" ry="16.26"/>
        <ellipse class="cls-5" cx="353.97" cy="175.06" rx="18.51" ry="16.26"/>
        <path class="cls-7" d="m373.99,171.31c-.09.29-.45.3-1.06.15-.61-.16-1.48-.49-2.59-.9-1.11-.82-2.46-3.34-4.03-1.37-1.57-2.38-3.37.25-5.38-1.27-.15-.13-1.53-1.26-3.17-.82-.7.19-1.18.59-1.43.85-.72-.23-3.24-1.05-5.62-1.68-.32-.09-.87-.23-1.5-.04-.6.18-1.19.66-1.76,1.62-2.07,2.27-3.92.65-5.55,1.26-1.62-2.49-3.02,4.36-4.16,1.4-1.15-.21-2.04-.56-2.68.93-.64,3.63-1.01.86-1.1-.14-.09,1.24.09-.09.51-1.48.42-2.54,1.07-1.52,1.92-2.39.16-.12.38-.33.54-.65.28-.53.16-.96.22-1.44.11-.93.81-1.58,1.11-1.86.93-.86,1.74-.55,2.73-1.06.73-.39,1.6-1.25,2.09-3.39.84-.33,2.07-.79,3.59-1.24,2.88-.86,4.94-1.47,7.42-1.36,1.3.05,3.42.33,5.94,1.61.55.59,1.36,1.33,2.47,1.98.82.48,1.59.79,2.23.99.3,0,1.47.07,2.47.99,1.14,1.04,1.21,2.41,1.22,2.67,1.22-.56,2.27,1.45,3.13,2.77.85.89,1.51,1.71,1.92,2.39.42.67.6,1.2.51,1.48Z"/>
        <circle class="cls-8" cx="353.97" cy="175.12" r="7.18"/>
        <circle class="cls-19" cx="353.97" cy="175.12" r="2.04"/>
        <path class="cls-26" d="m346.27,138.75c-1.66-1.88-1.41-3.76-3.01-9.72-.67-2.5-1.34-4.52-1.82-5.87,1.86,1.41,4.44,3.68,6.68,7.05,3.03,4.56,4.09,9.08,4.82,8.91.87-.21-.06-6.62,1.99-11.06.28-.6.61-1.19.61-1.19.51-.76,1.59-2.66,3.7-4.47.62-.53,1.49-1.2,2.61-1.84-.96,1.31-2.22,3.35-2.97,6.06-1.27,4.58-.9,10.34.74,10.76,1.67.43,4.52-4.69,5.81-8.16,1.06-2.83,1.38-5.34,1.48-7.05.44.48,1.05,1.22,1.61,2.23,1.68,3.04,1.5,6.06,1.36,8.04-.24,3.39-.39,5.45-1.86,7.18-3.14,3.69-9.63,2.67-13.98,1.98-3.93-.62-6.14-.97-7.79-2.85Z"/>
        <ellipse class="cls-6" cx="312.54" cy="182.99" rx="6.72" ry="5.82"/>
        <ellipse class="cls-6" cx="304.52" cy="196.73" rx="4.02" ry="3.48"/>
        <ellipse class="cls-6" cx="317.76" cy="193.81" rx="4.02" ry="3.48"/>
        <circle class="cls-6" cx="394.85" cy="193.81" r="6.5"/>
        <circle class="cls-6" cx="394.85" cy="178.63" r="3.63"/>
        <circle class="cls-6" cx="382.77" cy="183.39" r="4.44"/>
        <path class="cls-18" d="m350.93,222.63c-.15.76,4.03.94,6.94,4.33,2.17,2.54,2.63,5.73,2.99,7.92.8,4.91-.73,6.31.62,8.04,2.05,2.64,7.82,2.25,11.63.12,1.14-.64,4.22-2.36,4.82-5.44.61-3.11-2.13-3.99-4.33-10.02-1.71-4.7-1.55-8.26-3.26-8.59-.41-.08-1.3.34-3.08,1.18-1.75.83-2.06,1.15-3.06,1.44-1.41.41-2.56.29-3.25.23-3.5-.29-9.84-.14-10.02.79Z"/>
        <path class="cls-14" d="m367.07,228.99c1.98,3.07,2.68,3.59,3.11,5.34.69,2.84-.21,5.44-.42,5.43-.2-.01.35-2.31-.56-5.24-.68-2.18-1.48-2.52-3.2-5.66-1.62-2.96-2.61-5.77-2.46-5.85.14-.07,1.15,2.31,3.53,5.98Z"/>
      </g>
    </g>
  </g>
</svg>