<?xml version="1.0" encoding="UTF-8"?>
<svg id="Calque_2" data-name="Calque 2" xmlns="http://www.w3.org/2000/svg" xmlns:xlink="http://www.w3.org/1999/xlink" viewBox="0 0 152.43 133.51">
  <defs>
    <style>
      .cls-1, .cls-2 {
        fill: #fff;
      }

      .cls-3 {
        fill: #7f4d2a;
      }

      .cls-4 {
        fill: #81006e;
      }

      .cls-5 {
        fill: #e03716;
      }

      .cls-6 {
        fill: #d6d800;
      }

      .cls-7 {
        fill: #d90011;
      }

      .cls-8 {
        fill: #161615;
      }

      .cls-9 {
        fill: #552d0f;
      }

      .cls-10 {
        fill: #9c000b;
      }

      .cls-11 {
        fill: #85b819;
      }

      .cls-2 {
        opacity: .16;
      }

      .cls-12 {
        clip-path: url(#clippath);
        fill: none;
      }
    </style>
    <clipPath id="clippath">
      <path class="cls-9" d="m102.31,103.39c-1.02,5.2-20.59,5.24-27.34,5.26-6.39.01-26.79.06-27.83-5.26-.92-4.69,13.17-13.92,27.59-13.92,14.43,0,28.5,9.24,27.59,13.92Z"/>
    </clipPath>
  </defs>
  <g id="Calque_8" data-name="Calque 8">
    <g>
      <path class="cls-11" d="m136.33,77.84c0,30.75-27.58,55.67-61.61,55.67S13.11,108.59,13.11,77.84s27.58-55.67,61.61-55.67c17.72,0,31.18,7.26,36.47,10.79,1.12.75,25.14,17.69,25.14,44.88Z"/>
      <path class="cls-11" d="m146.32,5.61c-1.7-.55-3.28.79-18.89,18.01-17.17,18.92-19.06,21.48-18.14,24.22,2.25,6.78,20.28,10.55,31.42,3.34,16.82-10.88,12.56-43.31,5.61-45.57Z"/>
      <path class="cls-11" d="m8.29.04c3.38-.7,4.91,6.97,18.96,23.45,12.41,14.55,18.55,17.17,17.61,22.09-1.57,8.22-21.46,15.6-33.23,9.04C-7.11,44.17.65,1.62,8.29.04Z"/>
      <g>
        <path class="cls-9" d="m102.31,103.39c-1.02,5.2-20.59,5.24-27.34,5.26-6.39.01-26.79.06-27.83-5.26-.92-4.69,13.17-13.92,27.59-13.92,14.43,0,28.5,9.24,27.59,13.92Z"/>
        <g class="cls-12">
          <ellipse class="cls-10" cx="74.72" cy="106.92" rx="17.54" ry="7.05"/>
          <path class="cls-1" d="m89.89,86.98c-1.3-.34-2.73.33-3.86,1.46-.47-1.42-1.35-2.57-2.57-2.89-1.71-.45-3.66.86-4.85,2.69-.72-1.99-2.23-3.66-3.96-3.66-1.47,0-2.79,1.22-3.6,2.81-1.01-1.32-2.4-2.2-3.77-2.01-1.62.24-2.84,1.93-3.33,3.88-1.01-1.33-2.41-2.23-3.79-2.03-2.4.35-3.93,3.89-3.47,6.72.41,2.56,2.46,4.71,5.24,5.46,1.67-1.03,2.82-2.59,3.28-4.3.94,1.14,2.26,2.02,3.83,2.44,1.19-.73,2.11-1.73,2.72-2.86.74.91,1.72,1.67,2.88,2.18,1.38-.6,2.5-1.55,3.27-2.68.47,1.23,1.3,2.37,2.43,3.26,1.56-.24,2.93-.93,3.98-1.9.46,1.26,1.3,2.42,2.46,3.33,2.85-.44,5.12-2.35,5.81-4.84.77-2.77-.36-6.45-2.7-7.07Z"/>
        </g>
      </g>
      <path class="cls-6" d="m27.72,34.15c-.07-2.4-1.16-3.22-7.24-11.47-7.02-9.54-8.6-12.58-10.31-12.15-2.11.52-2.48,5.8-2.72,9.62-.32,5.19-1.58,25.45,5.77,27.67,5.36,1.62,14.69-6.5,14.5-13.66Z"/>
      <path class="cls-6" d="m124.32,33.51c.42-2.36,1.63-3.02,8.85-10.28,8.35-8.4,10.36-11.17,12-10.5,2.01.83,1.6,6.11,1.27,9.91-.45,5.18-2.19,25.4-9.79,26.52-5.54.81-13.57-8.6-12.32-15.65Z"/>
      <ellipse class="cls-6" cx="74.72" cy="63.57" rx="18.51" ry="16.26"/>
      <ellipse class="cls-1" cx="75.09" cy="61.08" rx="18.51" ry="16.26"/>
      <path class="cls-3" d="m95.11,57.33c-.09.29-.45.3-1.06.15-.61-.16-1.48-.49-2.59-.9-1.11-.82-2.46-3.34-4.03-1.37-1.57-2.38-3.37.25-5.38-1.27-.15-.13-1.53-1.26-3.17-.82-.7.19-1.18.59-1.43.85-.72-.23-3.24-1.05-5.62-1.68-.32-.09-.87-.23-1.5-.04-.6.18-1.19.66-1.76,1.62-2.07,2.27-3.92.65-5.55,1.26-1.62-2.49-3.02,4.36-4.16,1.4-1.15-.21-2.04-.56-2.68.93-.64,3.63-1.01.86-1.1-.14-.09,1.24.09-.09.51-1.48.42-2.54,1.07-1.52,1.92-2.39.16-.12.38-.33.54-.65.28-.53.16-.96.22-1.44.11-.93.81-1.58,1.11-1.86.93-.86,1.74-.55,2.73-1.06.73-.39,1.6-1.25,2.09-3.39.84-.33,2.07-.79,3.59-1.24,2.88-.86,4.94-1.47,7.42-1.36,1.3.05,3.42.33,5.94,1.61.55.59,1.36,1.33,2.47,1.98.82.48,1.59.79,2.23.99.3,0,1.47.07,2.47.99,1.14,1.04,1.21,2.41,1.22,2.67,1.22-.56,2.27,1.45,3.13,2.77.85.89,1.51,1.71,1.92,2.39.42.67.6,1.2.51,1.48Z"/>
      <circle class="cls-4" cx="75.09" cy="61.14" r="7.18"/>
      <circle class="cls-8" cx="75.09" cy="61.14" r="2.04"/>
      <path class="cls-11" d="m67.39,24.77c-1.66-1.88-1.41-3.76-3.01-9.72-.67-2.5-1.34-4.52-1.82-5.87,1.86,1.41,4.44,3.68,6.68,7.05,3.03,4.56,4.09,9.08,4.82,8.91.87-.21-.06-6.62,1.99-11.06.28-.6.61-1.19.61-1.19.51-.76,1.59-2.66,3.7-4.47.62-.53,1.49-1.2,2.61-1.84-.96,1.31-2.22,3.35-2.97,6.06-1.27,4.58-.9,10.34.74,10.76,1.67.43,4.52-4.69,5.81-8.16,1.06-2.83,1.38-5.34,1.48-7.05.44.48,1.05,1.22,1.61,2.23,1.68,3.04,1.5,6.06,1.36,8.04-.24,3.39-.39,5.45-1.86,7.18-3.14,3.69-9.63,2.67-13.98,1.98-3.93-.62-6.14-.97-7.79-2.85Z"/>
      <ellipse class="cls-2" cx="33.67" cy="69.01" rx="6.72" ry="5.82"/>
      <ellipse class="cls-2" cx="25.64" cy="82.75" rx="4.02" ry="3.48"/>
      <ellipse class="cls-2" cx="38.88" cy="79.82" rx="4.02" ry="3.48"/>
      <circle class="cls-2" cx="115.97" cy="79.82" r="6.5"/>
      <circle class="cls-2" cx="115.97" cy="64.65" r="3.63"/>
      <circle class="cls-2" cx="103.89" cy="69.4" r="4.44"/>
      <path class="cls-7" d="m72.05,108.64c-.15.76,4.03.94,6.94,4.33,2.17,2.54,2.63,5.73,2.99,7.92.8,4.91-.73,6.31.62,8.04,2.05,2.64,7.82,2.25,11.63.12,1.14-.64,4.22-2.36,4.82-5.44.61-3.11-2.13-3.99-4.33-10.02-1.71-4.7-1.55-8.26-3.26-8.59-.41-.08-1.3.34-3.08,1.18-1.75.83-2.06,1.15-3.06,1.44-1.41.41-2.56.29-3.25.23-3.5-.29-9.84-.14-10.02.79Z"/>
      <path class="cls-5" d="m88.2,115c1.98,3.07,2.68,3.59,3.11,5.34.69,2.84-.21,5.44-.42,5.43-.2-.01.35-2.31-.56-5.24-.68-2.18-1.48-2.52-3.2-5.66-1.62-2.96-2.61-5.77-2.46-5.85.14-.07,1.15,2.31,3.53,5.98Z"/>
    </g>
  </g>
</svg>