<?xml version="1.0" encoding="UTF-8"?>
<svg id="Calque_2" data-name="Calque 2" xmlns="http://www.w3.org/2000/svg" xmlns:xlink="http://www.w3.org/1999/xlink" viewBox="0 0 508.86 627.93">
  <defs>
    <style>
      .cls-1 {
        fill: #005a21;
      }

      .cls-2 {
        fill: #fff;
      }

      .cls-3 {
        fill: #b95926;
      }

      .cls-4 {
        fill: #b09db4;
      }

      .cls-5 {
        fill: #187c24;
      }

      .cls-6 {
        fill: #0d6d20;
      }

      .cls-7 {
        fill: #0d8928;
      }

      .cls-8 {
        fill: #1a992b;
      }

      .cls-9 {
        fill: #58a321;
      }

      .cls-10 {
        fill: #76b31d;
      }

      .cls-11 {
        fill: #4b414e;
      }

      .cls-12 {
        fill: #61270e;
      }

      .cls-13 {
        fill: #50280d;
      }

      .cls-14 {
        fill: none;
        stroke: #7d7080;
        stroke-linecap: round;
        stroke-miterlimit: 10;
        stroke-width: 1.59px;
      }
    </style>
    <symbol id="Herbe_1" data-name="Herbe 1" viewBox="0 0 28.9 44.07">
      <g>
        <g>
          <path class="cls-9" d="m13.49,40.74S18.23,25.17,11.39,0c12.34,22.34,4.51,35.95,2.1,40.74Z"/>
          <path class="cls-7" d="m11.13,37.62s1.33-11.64-11.13-20.48c10.77,11.43,8.97,20.98,10.32,26.92l.82-6.44Z"/>
          <path class="cls-6" d="m19.72,39.82s-2.42-11.58,5.65-16.97c-1.65,3.97-4.15,9.38-5.65,16.97Z"/>
          <path class="cls-1" d="m22.13,40.11s-.16-7.89,4.92-9.73c1.02-.82-1.48,4.64-4.92,9.73Z"/>
          <path class="cls-6" d="m10.72,28.99s3.83-7.92-7.07-21.66c2.73,6.06,5.98,13.91,7.07,21.66Z"/>
        </g>
        <path class="cls-7" d="m19.62,25.76s.53-19.36,9.28-22.28c-5.04,8.22-6.36,12.73-9.28,22.28Z"/>
      </g>
    </symbol>
    <symbol id="Herbe_4" data-name="Herbe 4" viewBox="0 0 44.77 23.83">
      <g>
        <path class="cls-8" d="m30.51,17.44l1.52.94s-.35-14.75.58-18.37c0,0-2.57,7.14-2.11,17.44Z"/>
        <path class="cls-8" d="m33.79,17.2l1.17-.82s-.23-11.59.23-12.76c0,0-1.75,8.66-1.4,13.58Z"/>
        <path class="cls-8" d="m23.52,22.54l-1.32-.82s.26-11.59-.26-12.76c0,0,1.98,8.66,1.58,13.58Z"/>
        <path class="cls-10" d="m37.65,17.67l.82-.82.12-9.6s-1.29,7.61-.94,10.42Z"/>
        <path class="cls-5" d="m28.76,17.67s0-9.59-1.05-11.94c0,0,0,9.01-.35,10.77l1.4,1.17Z"/>
        <path class="cls-5" d="m44.77,21.55s0-9.6-1.05-11.94c0,0,0,9.01-.35,10.77l1.4,1.17Z"/>
        <path class="cls-5" d="m35.54,19.19s1.05-6.9,3.86-8.66c0,0-3.04,6.08-2.69,9.6l-1.17-.94Z"/>
        <path class="cls-5" d="m35.42,19.56s1.05-6.9,3.86-8.66c0,0-3.04,6.09-2.69,9.6l-1.17-.94Z"/>
        <path class="cls-10" d="m33.67,17.34s.12-8.31-2.34-10.3c0,0,1.64,7.96,1.17,11.94l1.17-1.64Z"/>
        <path class="cls-8" d="m28.52,19.9s-.35-9.48,1.17-13.34c0,0-.58,12.75,0,14.98l-1.17-1.64Z"/>
        <path class="cls-10" d="m26.41,15.97s.12-6.55-.58-9.13c0,0-.12,9.95-.82,12.76l1.41-3.63Z"/>
        <path class="cls-8" d="m27.24,19.78s-.59-6.44-3.75-9.25c0,0,3.28,8.31,2.81,11l.94-1.75Z"/>
        <path class="cls-8" d="m43.12,18.08s-.59-6.44-3.74-9.25c0,0,3.28,8.31,2.81,11l.94-1.75Z"/>
        <path class="cls-8" d="m39.06,19.08s-.35-2.57,1.4-4.91c0,0-.82,5.73-.35,7.61l-1.05-2.69Z"/>
        <path class="cls-5" d="m38.33,20.54s0-7.52,2.06-10.31c0,0-1.58,9.58-1.09,13.22l-.97-2.91Z"/>
        <path class="cls-10" d="m25.11,18.26s-1.25-10.49-1.91-11.49c0,0,.83,10.93.32,12.98l1.59-1.5Z"/>
        <path class="cls-10" d="m34.33,19.81s.85-8.85,2.06-11.4c0,0-.49,7.16-.49,9.1l-1.58,2.3Z"/>
        <path class="cls-10" d="m40.52,20.29s.85-8.85,2.06-11.4c0,0-.49,7.16-.49,9.1l-1.58,2.3Z"/>
        <path class="cls-10" d="m29.6,17.75s1.34-10.31.37-13.71c0,0,1.94,10.19.97,15.53l-1.34-1.82Z"/>
        <path class="cls-8" d="m3.16,17.99l-1.52.77s.35-12.05-.59-15.02c0,0,2.57,5.83,2.11,14.25Z"/>
        <path class="cls-8" d="m11.51,17.58l1.17-1.04s-.23-14.78.23-16.27c0,0-1.75,11.05-1.4,17.32Z"/>
        <path class="cls-8" d="m10.16,22.92l1.32-.82s-.26-11.59.26-12.76c0,0-1.98,8.66-1.58,13.58Z"/>
        <path class="cls-10" d="m15.37,18.05l.82-.82.12-9.6s-1.29,7.61-.94,10.42Z"/>
        <path class="cls-5" d="m4.91,18.05s0-9.6,1.05-11.93c0,0,0,9.01.35,10.76l-1.41,1.17Z"/>
        <path class="cls-5" d="m22.49,21.93s0-9.59-1.05-11.94c0,0,0,9.01-.35,10.77l1.4,1.17Z"/>
        <path class="cls-5" d="m13.27,19.57s1.05-6.9,3.86-8.66c0,0-3.04,6.09-2.69,9.6l-1.17-.94Z"/>
        <path class="cls-10" d="m0,17.72S-.11,9.41,2.34,7.42c0,0-1.64,7.96-1.17,11.94L0,17.72Z"/>
        <path class="cls-8" d="m5.15,20.28s.35-9.48-1.17-13.34c0,0,.58,12.76,0,14.98l1.17-1.64Z"/>
        <path class="cls-10" d="m7.26,16.35s-.12-6.55.59-9.13c0,0,.12,9.95.82,12.76l-1.4-3.63Z"/>
        <path class="cls-8" d="m20.85,18.46s-.59-6.44-3.74-9.25c0,0,3.28,8.31,2.81,11l.94-1.76Z"/>
        <path class="cls-8" d="m16.78,19.46s-.35-2.57,1.4-4.91c0,0-.82,5.73-.35,7.61l-1.05-2.69Z"/>
        <path class="cls-5" d="m16.06,20.92s0-7.52,2.06-10.31c0,0-1.58,9.58-1.09,13.22l-.97-2.91Z"/>
        <path class="cls-10" d="m8.56,18.64s1.25-10.49,1.91-11.49c0,0-.84,10.93-.32,12.98l-1.6-1.5Z"/>
        <path class="cls-10" d="m12.06,20.19s.85-8.85,2.06-11.4c0,0-.49,7.16-.49,9.1l-1.58,2.3Z"/>
        <path class="cls-10" d="m18.24,20.68s.85-8.86,2.06-11.4c0,0-.49,7.16-.49,9.1l-1.58,2.3Z"/>
        <path class="cls-10" d="m4.07,18.13s-1.34-10.31-.37-13.71c0,0-1.94,10.19-.97,15.53l1.33-1.82Z"/>
        <path class="cls-5" d="m10.12,19.94s-1.05-6.91-3.86-8.66c0,0,3.04,6.08,2.69,9.6l1.17-.94Z"/>
        <path class="cls-8" d="m16.83,20.16s-.59-6.44-3.75-9.25c0,0,3.28,8.31,2.81,11l.94-1.75Z"/>
      </g>
    </symbol>
  </defs>
  <g id="Calque_1-2" data-name="Calque 1">
    <rect class="cls-2" x="188.57" width="43.24" height="11.63"/>
    <polyline class="cls-3" points="103.75 17.9 97.16 25.14 101.27 52.46 109.79 47.79 108.84 589.13 111.72 577.24 116.37 19.87 103.75 17.9"/>
    <path class="cls-12" d="m113.39,25.14c-2.11,262.47-4.32,536.12-4.54,563.99h-11.68V25.14h4.19v23.37l1.19-23.37h3.28l.74,8.06,1.04-8.06h5.77"/>
    <polyline class="cls-12" points="508.86 11.63 508.86 34.91 0 34.91 0 11.63 508.86 11.63"/>
    <path class="cls-13" d="m378.45,32.49s0,0,0,0c7.65-1,8.95-1.96,12.01-2.75.04-.46.19-.87.45-1.22-3.56.37-6.88.76-9.87,1.19h0s-5.57.29-15.37.57c-9.8.29-23.87.57-40.93.57-9.44,0-19.8-.09-30.87-.31-3-.71-6.13-1.44-9.45-2.14,27.39,1.03,47.49,1.44,62.92,1.44,21.28,0,33.7-.79,44.15-1.83.33-.17.74-.3,1.28-.34,1.89-.14,3.68-.26,5.35-.37,16.86-1.92,32.38-4.25,80.32-4.42v1.5c-5.37.1-10.84.22-16.34.36,5.08.18,10.52.43,16.34.76v1.77c-13.44-.51-28.04-.86-43.09-.88-16.71.6-31.82,1.76-42.35,3.82-1.2.61-1.95,1.18-2.42,1.64-.04-.35-.09-.73-.13-1.1-.79.18-1.56.36-2.28.55-.01,0-2.81.6-3.54.72,0,0-2.16.32-2.3.33,0,0-1.37.05-3.88.14h0m38.59-5.94c-2.82.07-13.17.83-16.34,1.08-.91.21-1.74.43-2.51.65,5.23-.75,11.64-1.32,18.85-1.73m-76.46,2.82c-18.02,0-38.98-.81-61.76-2.08-5.68-1.05-11.93-1.95-19.01-2.5,34.31,2.09,64.51,3.59,87.44,3.59,8.73,0,16.42-.22,22.87-.71,37.24-3.19-22.63-8.4,108.33-8.7v.63c-41.76,1.07-73.24,3.99-101.04,8.05-10.07,1.2-22.52,1.71-36.82,1.71m-144.82-4.3c-13.67-1.31-27.5-2.9-41.25-4.82-4.33-.58-9.1-1.45-14.77-2.41-33.35-2.21-66.36-4.06-96.69-4.78v-.03c29.74.74,60.62,2.19,91.16,3.91-1-.15-2.03-.31-3.09-.48-72.74-3.21-82.17-3.77-85.29-3.77-.97,0-1.33.05-2.77.1v-1.16c12.96.1,15.49.11,15.63.12,2.05-.05,4.12-.09,6.21-.12h14.83c4.99.07,9.95.22,14.77.46,15.95.39,22.29,1.06,33.28,2.13,0,0,10.81,1.64,26.47,3.26-5.14-.23-10.39-.46-15.78-.7,1.47.21,2.94.43,4.44.65,38.69,2.25,76.62,4.86,110.77,6.98-6.78-.32-13.54-.45-20.2-.45-2.06,0-4.11.01-6.15.04-24.78-1.73-50.6-3.65-76.37-5.41,14.6,2.07,31.68,4.25,55.48,5.98-3.65.15-7.22.32-10.68.49"/>
    <g>
      <path class="cls-11" d="m113.41,24.44c0,2.61-2.11,4.72-4.72,4.72s-4.72-2.11-4.72-4.72,2.11-4.72,4.72-4.72,4.72,2.11,4.72,4.72h0Z"/>
      <path class="cls-4" d="m112.85,24.44c0,2.61-2.11,4.72-4.72,4.72s-4.72-2.11-4.72-4.72,2.11-4.72,4.72-4.72,4.72,2.11,4.72,4.72h0Z"/>
      <line class="cls-14" x1="106.39" y1="22.68" x2="109.92" y2="26.21"/>
      <line class="cls-14" x1="109.9" y1="22.66" x2="106.37" y2="26.19"/>
    </g>
    <use width="44.77" height="23.83" transform="translate(51.5 547.09) scale(2.31 2.96)" xlink:href="#Herbe_4"/>
    <use width="44.77" height="23.83" transform="translate(86.58 548.71) scale(2.31 2.96)" xlink:href="#Herbe_4"/>
    <use width="28.9" height="44.07" transform="translate(125.52 497.11) scale(1.95)" xlink:href="#Herbe_1"/>
    <path class="cls-2" d="m198.44,627.93H41.57v-37.07c21.42,10.22,47.96,18.54,78.43,18.54s57.01-8.32,78.43-18.54v37.07Z"/>
  </g>
</svg>