<?xml version="1.0" encoding="UTF-8"?>
<svg id="Calque_2" data-name="Calque 2" xmlns="http://www.w3.org/2000/svg" xmlns:xlink="http://www.w3.org/1999/xlink" viewBox="0 0 508.86 627.93">
  <defs>
    <style>
      .cls-1, .cls-2 {
        fill: none;
      }

      .cls-3 {
        fill: #005a21;
      }

      .cls-4 {
        fill: #008cdc;
      }

      .cls-5 {
        fill: #f4f4f4;
      }

      .cls-6 {
        fill: #f6a428;
      }

      .cls-7 {
        fill: #fff;
      }

      .cls-8 {
        fill: #ffed00;
      }

      .cls-9 {
        fill: #fbe912;
      }

      .cls-10 {
        fill: #ee7f00;
      }

      .cls-11 {
        fill: #a06c3a;
      }

      .cls-12 {
        fill: #b95926;
      }

      .cls-13 {
        fill: #bd8d54;
      }

      .cls-14 {
        fill: #b09db4;
      }

      .cls-15 {
        fill: #161615;
      }

      .cls-16 {
        fill: #1e174a;
      }

      .cls-17 {
        fill: #211e70;
      }

      .cls-18 {
        fill: #187c24;
      }

      .cls-19 {
        fill: #0d6d20;
      }

      .cls-20 {
        fill: #0d8928;
      }

      .cls-21 {
        fill: #1a992b;
      }

      .cls-22 {
        fill: #195ba9;
      }

      .cls-23 {
        fill: #58a321;
      }

      .cls-24 {
        fill: #76b31d;
      }

      .cls-25 {
        fill: #4b414e;
      }

      .cls-26 {
        fill: #61270e;
      }

      .cls-27 {
        fill: #50280d;
      }

      .cls-28 {
        fill: url(#_40_10_ppp);
      }

      .cls-2 {
        stroke: #7d7080;
        stroke-linecap: round;
        stroke-miterlimit: 10;
        stroke-width: 1.59px;
      }
    </style>
    <symbol id="Herbe_1" data-name="Herbe 1" viewBox="0 0 28.9 44.07">
      <g>
        <g>
          <path class="cls-23" d="m13.49,40.74S18.23,25.17,11.39,0c12.34,22.34,4.51,35.95,2.1,40.74Z"/>
          <path class="cls-20" d="m11.13,37.62s1.33-11.64-11.13-20.48c10.77,11.43,8.97,20.98,10.32,26.92l.82-6.44Z"/>
          <path class="cls-19" d="m19.72,39.82s-2.42-11.58,5.65-16.97c-1.65,3.97-4.15,9.38-5.65,16.97Z"/>
          <path class="cls-3" d="m22.13,40.11s-.16-7.89,4.92-9.73c1.02-.82-1.48,4.64-4.92,9.73Z"/>
          <path class="cls-19" d="m10.72,28.99s3.83-7.92-7.07-21.66c2.73,6.06,5.98,13.91,7.07,21.66Z"/>
        </g>
        <path class="cls-20" d="m19.62,25.76s.53-19.36,9.28-22.28c-5.04,8.22-6.36,12.73-9.28,22.28Z"/>
      </g>
    </symbol>
    <symbol id="Herbe_4" data-name="Herbe 4" viewBox="0 0 44.77 23.83">
      <g>
        <path class="cls-21" d="m30.51,17.44l1.52.94s-.35-14.75.58-18.37c0,0-2.57,7.14-2.11,17.44Z"/>
        <path class="cls-21" d="m33.79,17.2l1.17-.82s-.23-11.59.23-12.76c0,0-1.75,8.66-1.4,13.58Z"/>
        <path class="cls-21" d="m23.52,22.54l-1.32-.82s.26-11.59-.26-12.76c0,0,1.98,8.66,1.58,13.58Z"/>
        <path class="cls-24" d="m37.65,17.67l.82-.82.12-9.6s-1.29,7.61-.94,10.42Z"/>
        <path class="cls-18" d="m28.76,17.67s0-9.59-1.05-11.94c0,0,0,9.01-.35,10.77l1.4,1.17Z"/>
        <path class="cls-18" d="m44.77,21.55s0-9.6-1.05-11.94c0,0,0,9.01-.35,10.77l1.4,1.17Z"/>
        <path class="cls-18" d="m35.54,19.19s1.05-6.9,3.86-8.66c0,0-3.04,6.08-2.69,9.6l-1.17-.94Z"/>
        <path class="cls-18" d="m35.42,19.56s1.05-6.9,3.86-8.66c0,0-3.04,6.09-2.69,9.6l-1.17-.94Z"/>
        <path class="cls-24" d="m33.67,17.34s.12-8.31-2.34-10.3c0,0,1.64,7.96,1.17,11.94l1.17-1.64Z"/>
        <path class="cls-21" d="m28.52,19.9s-.35-9.48,1.17-13.34c0,0-.58,12.75,0,14.98l-1.17-1.64Z"/>
        <path class="cls-24" d="m26.41,15.97s.12-6.55-.58-9.13c0,0-.12,9.95-.82,12.76l1.41-3.63Z"/>
        <path class="cls-21" d="m27.24,19.78s-.59-6.44-3.75-9.25c0,0,3.28,8.31,2.81,11l.94-1.75Z"/>
        <path class="cls-21" d="m43.12,18.08s-.59-6.44-3.74-9.25c0,0,3.28,8.31,2.81,11l.94-1.75Z"/>
        <path class="cls-21" d="m39.06,19.08s-.35-2.57,1.4-4.91c0,0-.82,5.73-.35,7.61l-1.05-2.69Z"/>
        <path class="cls-18" d="m38.33,20.54s0-7.52,2.06-10.31c0,0-1.58,9.58-1.09,13.22l-.97-2.91Z"/>
        <path class="cls-24" d="m25.11,18.26s-1.25-10.49-1.91-11.49c0,0,.83,10.93.32,12.98l1.59-1.5Z"/>
        <path class="cls-24" d="m34.33,19.81s.85-8.85,2.06-11.4c0,0-.49,7.16-.49,9.1l-1.58,2.3Z"/>
        <path class="cls-24" d="m40.52,20.29s.85-8.85,2.06-11.4c0,0-.49,7.16-.49,9.1l-1.58,2.3Z"/>
        <path class="cls-24" d="m29.6,17.75s1.34-10.31.37-13.71c0,0,1.94,10.19.97,15.53l-1.34-1.82Z"/>
        <path class="cls-21" d="m3.16,17.99l-1.52.77s.35-12.05-.59-15.02c0,0,2.57,5.83,2.11,14.25Z"/>
        <path class="cls-21" d="m11.51,17.58l1.17-1.04s-.23-14.78.23-16.27c0,0-1.75,11.05-1.4,17.32Z"/>
        <path class="cls-21" d="m10.16,22.92l1.32-.82s-.26-11.59.26-12.76c0,0-1.98,8.66-1.58,13.58Z"/>
        <path class="cls-24" d="m15.37,18.05l.82-.82.12-9.6s-1.29,7.61-.94,10.42Z"/>
        <path class="cls-18" d="m4.91,18.05s0-9.6,1.05-11.93c0,0,0,9.01.35,10.76l-1.41,1.17Z"/>
        <path class="cls-18" d="m22.49,21.93s0-9.59-1.05-11.94c0,0,0,9.01-.35,10.77l1.4,1.17Z"/>
        <path class="cls-18" d="m13.27,19.57s1.05-6.9,3.86-8.66c0,0-3.04,6.09-2.69,9.6l-1.17-.94Z"/>
        <path class="cls-24" d="m0,17.72S-.11,9.41,2.34,7.42c0,0-1.64,7.96-1.17,11.94L0,17.72Z"/>
        <path class="cls-21" d="m5.15,20.28s.35-9.48-1.17-13.34c0,0,.58,12.76,0,14.98l1.17-1.64Z"/>
        <path class="cls-24" d="m7.26,16.35s-.12-6.55.59-9.13c0,0,.12,9.95.82,12.76l-1.4-3.63Z"/>
        <path class="cls-21" d="m20.85,18.46s-.59-6.44-3.74-9.25c0,0,3.28,8.31,2.81,11l.94-1.76Z"/>
        <path class="cls-21" d="m16.78,19.46s-.35-2.57,1.4-4.91c0,0-.82,5.73-.35,7.61l-1.05-2.69Z"/>
        <path class="cls-18" d="m16.06,20.92s0-7.52,2.06-10.31c0,0-1.58,9.58-1.09,13.22l-.97-2.91Z"/>
        <path class="cls-24" d="m8.56,18.64s1.25-10.49,1.91-11.49c0,0-.84,10.93-.32,12.98l-1.6-1.5Z"/>
        <path class="cls-24" d="m12.06,20.19s.85-8.85,2.06-11.4c0,0-.49,7.16-.49,9.1l-1.58,2.3Z"/>
        <path class="cls-24" d="m18.24,20.68s.85-8.86,2.06-11.4c0,0-.49,7.16-.49,9.1l-1.58,2.3Z"/>
        <path class="cls-24" d="m4.07,18.13s-1.34-10.31-.37-13.71c0,0-1.94,10.19-.97,15.53l1.33-1.82Z"/>
        <path class="cls-18" d="m10.12,19.94s-1.05-6.91-3.86-8.66c0,0,3.04,6.08,2.69,9.6l1.17-.94Z"/>
        <path class="cls-21" d="m16.83,20.16s-.59-6.44-3.75-9.25c0,0,3.28,8.31,2.81,11l.94-1.75Z"/>
      </g>
    </symbol>
    <pattern id="_40_10_ppp" data-name="40 % 10 ppp" x="0" y="0" width="28.8" height="28.8" patternTransform="translate(-719.11 -74.35)" patternUnits="userSpaceOnUse" viewBox="0 0 28.8 28.8">
      <g>
        <rect class="cls-1" x="0" y="0" width="28.8" height="28.8"/>
        <g>
          <path class="cls-15" d="m28.8,31.68c1.59,0,2.88-1.29,2.88-2.88s-1.29-2.88-2.88-2.88-2.88,1.29-2.88,2.88,1.29,2.88,2.88,2.88Z"/>
          <path class="cls-15" d="m14.4,31.68c1.59,0,2.88-1.29,2.88-2.88s-1.29-2.88-2.88-2.88-2.88,1.29-2.88,2.88,1.29,2.88,2.88,2.88Z"/>
          <path class="cls-15" d="m28.8,17.28c1.59,0,2.88-1.29,2.88-2.88s-1.29-2.88-2.88-2.88-2.88,1.29-2.88,2.88,1.29,2.88,2.88,2.88Z"/>
          <path class="cls-15" d="m14.4,17.28c1.59,0,2.88-1.29,2.88-2.88s-1.29-2.88-2.88-2.88-2.88,1.29-2.88,2.88,1.29,2.88,2.88,2.88Z"/>
          <path class="cls-15" d="m7.2,24.48c1.59,0,2.88-1.29,2.88-2.88s-1.29-2.88-2.88-2.88-2.88,1.29-2.88,2.88,1.29,2.88,2.88,2.88Z"/>
          <path class="cls-15" d="m21.6,24.48c1.59,0,2.88-1.29,2.88-2.88s-1.29-2.88-2.88-2.88-2.88,1.29-2.88,2.88,1.29,2.88,2.88,2.88Z"/>
          <path class="cls-15" d="m7.2,10.08c1.59,0,2.88-1.29,2.88-2.88s-1.29-2.88-2.88-2.88-2.88,1.29-2.88,2.88,1.29,2.88,2.88,2.88Z"/>
          <path class="cls-15" d="m21.6,10.08c1.59,0,2.88-1.29,2.88-2.88s-1.29-2.88-2.88-2.88-2.88,1.29-2.88,2.88,1.29,2.88,2.88,2.88Z"/>
        </g>
        <g>
          <path class="cls-15" d="m0,31.68c1.59,0,2.88-1.29,2.88-2.88S1.59,25.92,0,25.92s-2.88,1.29-2.88,2.88S-1.59,31.68,0,31.68Z"/>
          <path class="cls-15" d="m0,17.28c1.59,0,2.88-1.29,2.88-2.88S1.59,11.52,0,11.52s-2.88,1.29-2.88,2.88S-1.59,17.28,0,17.28Z"/>
        </g>
        <g>
          <path class="cls-15" d="m28.8,2.88c1.59,0,2.88-1.29,2.88-2.88s-1.29-2.88-2.88-2.88-2.88,1.29-2.88,2.88,1.29,2.88,2.88,2.88Z"/>
          <path class="cls-15" d="m14.4,2.88c1.59,0,2.88-1.29,2.88-2.88s-1.29-2.88-2.88-2.88-2.88,1.29-2.88,2.88,1.29,2.88,2.88,2.88Z"/>
        </g>
        <path class="cls-15" d="m0,2.88c1.59,0,2.88-1.29,2.88-2.88S1.59-2.88,0-2.88-2.88-1.59-2.88,0-1.59,2.88,0,2.88Z"/>
      </g>
    </pattern>
  </defs>
  <g id="Calque_1-2" data-name="Calque 1">
    <rect class="cls-7" x="188.57" width="43.24" height="11.63"/>
    <rect class="cls-10" x="314.49" y="237.21" width="89.99" height="117.33" rx="30.89" ry="30.89"/>
    <polyline class="cls-12" points="103.75 17.9 97.16 25.14 101.27 52.46 109.79 47.79 108.84 589.13 111.72 577.24 116.37 19.87 103.75 17.9"/>
    <path class="cls-26" d="m113.39,25.14c-2.11,262.47-4.32,536.12-4.54,563.99h-11.68V25.14h4.19v23.37l1.19-23.37h3.28l.74,8.06,1.04-8.06h5.77"/>
    <polyline class="cls-26" points="508.86 11.63 508.86 34.91 0 34.91 0 11.63 508.86 11.63"/>
    <path class="cls-27" d="m378.45,32.49s0,0,0,0c7.65-1,8.95-1.96,12.01-2.75.04-.46.19-.87.45-1.22-3.56.37-6.88.76-9.87,1.19h0s-5.57.29-15.37.57c-9.8.29-23.87.57-40.93.57-9.44,0-19.8-.09-30.87-.31-3-.71-6.13-1.44-9.45-2.14,27.39,1.03,47.49,1.44,62.92,1.44,21.28,0,33.7-.79,44.15-1.83.33-.17.74-.3,1.28-.34,1.89-.14,3.68-.26,5.35-.37,16.86-1.92,32.38-4.25,80.32-4.42v1.5c-5.37.1-10.84.22-16.34.36,5.08.18,10.52.43,16.34.76v1.77c-13.44-.51-28.04-.86-43.09-.88-16.71.6-31.82,1.76-42.35,3.82-1.2.61-1.95,1.18-2.42,1.64-.04-.35-.09-.73-.13-1.1-.79.18-1.56.36-2.28.55-.01,0-2.81.6-3.54.72,0,0-2.16.32-2.3.33,0,0-1.37.05-3.88.14h0m38.59-5.94c-2.82.07-13.17.83-16.34,1.08-.91.21-1.74.43-2.51.65,5.23-.75,11.64-1.32,18.85-1.73m-76.46,2.82c-18.02,0-38.98-.81-61.76-2.08-5.68-1.05-11.93-1.95-19.01-2.5,34.31,2.09,64.51,3.59,87.44,3.59,8.73,0,16.42-.22,22.87-.71,37.24-3.19-22.63-8.4,108.33-8.7v.63c-41.76,1.07-73.24,3.99-101.04,8.05-10.07,1.2-22.52,1.71-36.82,1.71m-144.82-4.3c-13.67-1.31-27.5-2.9-41.25-4.82-4.33-.58-9.1-1.45-14.77-2.41-33.35-2.21-66.36-4.06-96.69-4.78v-.03c29.74.74,60.62,2.19,91.16,3.91-1-.15-2.03-.31-3.09-.48-72.74-3.21-82.17-3.77-85.29-3.77-.97,0-1.33.05-2.77.1v-1.16c12.96.1,15.49.11,15.63.12,2.05-.05,4.12-.09,6.21-.12h14.83c4.99.07,9.95.22,14.77.46,15.95.39,22.29,1.06,33.28,2.13,0,0,10.81,1.64,26.47,3.26-5.14-.23-10.39-.46-15.78-.7,1.47.21,2.94.43,4.44.65,38.69,2.25,76.62,4.86,110.77,6.98-6.78-.32-13.54-.45-20.2-.45-2.06,0-4.11.01-6.15.04-24.78-1.73-50.6-3.65-76.37-5.41,14.6,2.07,31.68,4.25,55.48,5.98-3.65.15-7.22.32-10.68.49"/>
    <g>
      <rect class="cls-13" x="349.86" y="11.63" width="8.85" height="154.3"/>
      <path class="cls-11" d="m358.03,22.44l-7.41,3.01c-.66.27-1.21.05-1.23-.48v-.45c-.03-.53.5-1.19,1.17-1.46l7.41-3.01c.66-.27,1.21-.05,1.23.48v.45c.03.53-.5,1.19-1.17,1.46Z"/>
      <path class="cls-11" d="m358.03,16.81l-7.41,3.01c-.66.27-1.21.05-1.23-.48v-.45c-.03-.53.5-1.19,1.17-1.46l7.41-3.01c.66-.27,1.21-.05,1.23.48v.45c.03.53-.5,1.19-1.17,1.46Z"/>
      <path class="cls-11" d="m358.71,11.63c-3.7.1-5.72.86-6.9,1.6-.4.25-1.89,1.24-2.31.85-.1-.09-.12-.24-.12-.36v-.45c-.03-.3-.05-1.09.48-1.63.22-.23.46-.33.59-.38,1.08-.43,2.41-.36,3.47-.37,2.21-.03,2.8-.42,3.89.12.41.2.7.45.9.63Z"/>
      <path class="cls-11" d="m358.03,28.07l-7.41,3.01c-.66.27-1.21.05-1.23-.48v-.45c-.03-.53.5-1.19,1.17-1.46l7.41-3.01c.66-.27,1.21-.05,1.23.48v.45c.03.53-.5,1.19-1.17,1.46Z"/>
      <path class="cls-11" d="m358.03,33.7l-7.41,3.01c-.66.27-1.21.05-1.23-.48v-.45c-.03-.53.5-1.19,1.17-1.46l7.41-3.01c.66-.27,1.21-.05,1.23.48v.45c.03.53-.5,1.19-1.17,1.46Z"/>
      <path class="cls-11" d="m358.03,39.33l-7.41,3.01c-.66.27-1.21.05-1.23-.48v-.45c-.03-.53.5-1.19,1.17-1.46l7.41-3.01c.66-.27,1.21-.05,1.23.48v.45c.03.53-.5,1.19-1.17,1.46Z"/>
      <path class="cls-11" d="m358.03,44.96l-7.41,3.01c-.66.27-1.21.05-1.23-.48v-.45c-.03-.53.5-1.19,1.17-1.46l7.41-3.01c.66-.27,1.21-.05,1.23.48v.45c.03.53-.5,1.19-1.17,1.46Z"/>
      <path class="cls-11" d="m358.03,50.59l-7.41,3.01c-.66.27-1.21.05-1.23-.48v-.45c-.03-.53.5-1.19,1.17-1.46l7.41-3.01c.66-.27,1.21-.05,1.23.48v.45c.03.53-.5,1.19-1.17,1.46Z"/>
      <path class="cls-11" d="m358.03,56.22l-7.41,3.01c-.66.27-1.21.05-1.23-.48v-.45c-.03-.53.5-1.19,1.17-1.46l7.41-3.01c.66-.27,1.21-.05,1.23.48v.45c.03.53-.5,1.19-1.17,1.46Z"/>
      <path class="cls-11" d="m358.03,61.85l-7.41,3.01c-.66.27-1.21.05-1.23-.48v-.45c-.03-.53.5-1.19,1.17-1.46l7.41-3.01c.66-.27,1.21-.05,1.23.48v.45c.03.53-.5,1.19-1.17,1.46Z"/>
      <path class="cls-11" d="m358.03,67.47l-7.41,3.01c-.66.27-1.21.05-1.23-.48v-.45c-.03-.53.5-1.19,1.17-1.46l7.41-3.01c.66-.27,1.21-.05,1.23.48v.45c.03.53-.5,1.19-1.17,1.46Z"/>
      <path class="cls-11" d="m358.03,73.1l-7.41,3.01c-.66.27-1.21.05-1.23-.48v-.45c-.03-.53.5-1.19,1.17-1.46l7.41-3.01c.66-.27,1.21-.05,1.23.48v.45c.03.53-.5,1.19-1.17,1.46Z"/>
      <path class="cls-11" d="m358.03,78.73l-7.41,3.01c-.66.27-1.21.05-1.23-.48v-.45c-.03-.53.5-1.19,1.17-1.46l7.41-3.01c.66-.27,1.21-.05,1.23.48v.45c.03.53-.5,1.19-1.17,1.46Z"/>
      <path class="cls-11" d="m358.03,84.36l-7.41,3.01c-.66.27-1.21.05-1.23-.48v-.45c-.03-.53.5-1.19,1.17-1.46l7.41-3.01c.66-.27,1.21-.05,1.23.48v.45c.03.53-.5,1.19-1.17,1.46Z"/>
      <path class="cls-11" d="m358.03,89.99l-7.41,3.01c-.66.27-1.21.05-1.23-.48v-.45c-.03-.53.5-1.19,1.17-1.46l7.41-3.01c.66-.27,1.21-.05,1.23.48v.45c.03.53-.5,1.19-1.17,1.46Z"/>
      <path class="cls-11" d="m358.03,95.62l-7.41,3.01c-.66.27-1.21.05-1.23-.48v-.45c-.03-.53.5-1.19,1.17-1.46l7.41-3.01c.66-.27,1.21-.05,1.23.48v.45c.03.53-.5,1.19-1.17,1.46Z"/>
      <path class="cls-11" d="m358.03,101.25l-7.41,3.01c-.66.27-1.21.05-1.23-.48v-.45c-.03-.53.5-1.19,1.17-1.46l7.41-3.01c.66-.27,1.21-.05,1.23.48v.45c.03.53-.5,1.19-1.17,1.46Z"/>
      <path class="cls-11" d="m358.03,106.88l-7.41,3.01c-.66.27-1.21.05-1.23-.48v-.45c-.03-.53.5-1.19,1.17-1.46l7.41-3.01c.66-.27,1.21-.05,1.23.48v.45c.03.53-.5,1.19-1.17,1.46Z"/>
      <path class="cls-11" d="m358.03,112.51l-7.41,3.01c-.66.27-1.21.05-1.23-.48v-.45c-.03-.53.5-1.19,1.17-1.46l7.41-3.01c.66-.27,1.21-.05,1.23.48v.45c.03.53-.5,1.19-1.17,1.46Z"/>
      <path class="cls-11" d="m358.03,118.13l-7.41,3.01c-.66.27-1.21.05-1.23-.48v-.45c-.03-.53.5-1.19,1.17-1.46l7.41-3.01c.66-.27,1.21-.05,1.23.48v.45c.03.53-.5,1.19-1.17,1.46Z"/>
      <path class="cls-11" d="m358.03,123.76l-7.41,3.01c-.66.27-1.21.05-1.23-.48v-.45c-.03-.53.5-1.19,1.17-1.46l7.41-3.01c.66-.27,1.21-.05,1.23.48v.45c.03.53-.5,1.19-1.17,1.46Z"/>
      <path class="cls-11" d="m358.03,129.39l-7.41,3.01c-.66.27-1.21.05-1.23-.48v-.45c-.03-.53.5-1.19,1.17-1.46l7.41-3.01c.66-.27,1.21-.05,1.23.48v.45c.03.53-.5,1.19-1.17,1.46Z"/>
      <path class="cls-11" d="m358.03,135.02l-7.41,3.01c-.66.27-1.21.05-1.23-.48v-.45c-.03-.53.5-1.19,1.17-1.46l7.41-3.01c.66-.27,1.21-.05,1.23.48v.45c.03.53-.5,1.19-1.17,1.46Z"/>
      <path class="cls-11" d="m358.57,137.83l-7.63,4.09c-.68.37-1.41-.31-1.61-1.52l-.18-1.02c-.21-1.2.18-2.48.86-2.84l7.63-4.09c.68-.37,1.41.31,1.61,1.52l.18,1.02c.21,1.2-.18,2.48-.86,2.84Z"/>
      <path class="cls-11" d="m358.57,148.01l-7.63,4.09c-.68.37-1.41-.31-1.61-1.52l-.18-1.02c-.21-1.2.18-2.48.86-2.84l7.63-4.09c.68-.37,1.41.31,1.61,1.52l.18,1.02c.21,1.2-.18,2.48-.86,2.84Z"/>
      <path class="cls-11" d="m358.57,158.2l-7.63,4.09c-.68.37-1.41-.31-1.61-1.52l-.18-1.02c-.21-1.2.18-2.48.86-2.84l7.63-4.09c.68-.37,1.41.31,1.61,1.52l.18,1.02c.21,1.2-.18,2.48-.86,2.84Z"/>
    </g>
    <g>
      <g>
        <path class="cls-27" d="m111.81,157.71l-6.12,4.07s26.25-34.6,62.65-67.54c36.4-32.95,69.6-56.88,69.6-56.88l-14.28-16.53,6.29-8.37,4.85-.82,12.6,20.56.58,6.88-77.51,51.78c-2.11,1.41-4.05,3.13-5.69,5.04l-52.98,61.8"/>
        <path class="cls-26" d="m243.14,29.88c.35.42.5.56,1.55,1.71.66.72,1.19,1.31,1.55,1.71-.25,1.96-.5,3.89-.76,5.81-30.97,20.58-60.51,43.82-87.96,69.24-3.5,3.24-6.97,6.52-10.4,9.83-14.47,13.95-28.31,28.51-41.43,43.6-1.47-1.37-2.96-2.74-4.47-4.12-2.87-2.62-5.73-5.17-8.58-7.66.3-.81.62-1.9.76-3.23.15-1.42.05-2.64-.09-3.53,0,1.05-.17,2.55-.9,4.16-.24.53-.51,1-.78,1.4-.1-.09-1.2-1.11-1.3-1.2-2.48-2.28-5.36-4.94-7.83-7.23,2.81-2.46,5.62-4.91,8.44-7.37-.58-.34-1.17-.67-1.76-1.01,1.91-1.36,3.8-2.73,5.7-4.1,15.51-13.39,31.05-26.76,46.62-40.11,6.07-5.21,12.16-10.42,18.24-15.62,0,0,1.94-1.28,4.77-3.31,5.43-3.91,14.15-10.66,18.84-16.85,7.12-9.54,46.56-39.73,46.61-39.56,1.87,2.76,3.74,5.52,5.61,8.29-2.28,1.79-4.57,3.58-6.85,5.39,2.48-1.52,4.96-3.02,7.45-4.51.7,1.05,1.41,2.09,2.12,3.14,1.6.8,2.52,1.74,3.06,2.46.66.88.74,1.39,1.79,2.65Z"/>
        <polygon class="cls-27" points="243.14 29.88 220.21 49.68 243.95 30.81 243.14 29.88 243.14 29.88"/>
        <path class="cls-27" d="m216.67,54.7c-3.11,2.68-10.19,4.92-27.89,17.78-1.67,1.21-3.53,2.68-5.53,4.37.15-.36.19-.6.09-.71-.78-.91-4.47,1.91-9.58,6.32-2.15,1.86-4.56,4-7.1,6.26-2.55,2.26-5.23,4.65-7.95,7-9.14,7.89-18.63,15.36-24.26,16.32-5.76.98,7.71-11.76,24.46-26.22,20.9-18.05,46.89-38.77,46.89-38.77h0s-15.07,7.97-34.2,20.11c20.89-18.89,38.18-34.67,38.4-35.34.04-.13.13-.25.25-.35,1.43-1.24,7.86-.33,6.35,4.33-1.64,5.04,11,3.18,7.39,6.3s-3.75,7.59-6.07,11.22c-.32.51-.72.95-1.23,1.39"/>
      </g>
      <g>
        <path class="cls-25" d="m234.13,25.07c0,2.61-2.11,4.72-4.72,4.72s-4.72-2.11-4.72-4.72,2.11-4.72,4.72-4.72,4.72,2.11,4.72,4.72h0Z"/>
        <g>
          <path class="cls-14" d="m233.57,25.07c0,2.61-2.11,4.72-4.72,4.72s-4.72-2.11-4.72-4.72,2.11-4.72,4.72-4.72,4.72,2.11,4.72,4.72h0Z"/>
          <line class="cls-2" x1="227.11" y1="23.3" x2="230.64" y2="26.83"/>
          <line class="cls-2" x1="230.61" y1="23.28" x2="227.08" y2="26.81"/>
        </g>
      </g>
      <g>
        <path class="cls-25" d="m110.03,138.14c0,2.61-2.11,4.72-4.72,4.72s-4.72-2.11-4.72-4.72,2.11-4.72,4.72-4.72,4.72,2.11,4.72,4.72h0Z"/>
        <g>
          <path class="cls-14" d="m109.47,138.14c0,2.61-2.11,4.72-4.72,4.72s-4.72-2.11-4.72-4.72,2.11-4.72,4.72-4.72,4.72,2.11,4.72,4.72h0Z"/>
          <line class="cls-2" x1="103.01" y1="136.38" x2="106.54" y2="139.91"/>
          <line class="cls-2" x1="106.52" y1="136.36" x2="102.99" y2="139.89"/>
        </g>
      </g>
    </g>
    <g>
      <path class="cls-25" d="m113.41,24.44c0,2.61-2.11,4.72-4.72,4.72s-4.72-2.11-4.72-4.72,2.11-4.72,4.72-4.72,4.72,2.11,4.72,4.72h0Z"/>
      <path class="cls-14" d="m112.85,24.44c0,2.61-2.11,4.72-4.72,4.72s-4.72-2.11-4.72-4.72,2.11-4.72,4.72-4.72,4.72,2.11,4.72,4.72h0Z"/>
      <line class="cls-2" x1="106.39" y1="22.68" x2="109.92" y2="26.21"/>
      <line class="cls-2" x1="109.9" y1="22.66" x2="106.37" y2="26.19"/>
    </g>
    <use width="44.77" height="23.83" transform="translate(51.5 547.09) scale(2.31 2.96)" xlink:href="#Herbe_4"/>
    <use width="44.77" height="23.83" transform="translate(86.58 548.71) scale(2.31 2.96)" xlink:href="#Herbe_4"/>
    <use width="28.9" height="44.07" transform="translate(125.52 497.11) scale(1.95)" xlink:href="#Herbe_1"/>
    <path class="cls-7" d="m198.44,627.93H41.57v-37.07c21.42,10.22,47.96,18.54,78.43,18.54s57.01-8.32,78.43-18.54v37.07Z"/>
  </g>
  <g id="tete">
    <g>
      <path class="cls-10" d="m413.54,192.95c0,3.81-.6,7.51-1.71,11.04-3.54-1.27-7.35-2.51-11.4-3.66l.8-1.48-12.13-3.06.35-.62-13.24-3.35.28-.66-16.11-1.96,1.12,4.7c-4.72-.23-9.61-.28-14.65-.1-19.77.72-36.81,4.73-50.47,9.48-.97-3.32-1.48-6.77-1.48-10.32,0-25.52,26.56-46.19,59.31-46.19s59.32,20.67,59.32,46.19Z"/>
      <circle class="cls-6" cx="323.01" cy="151.62" r="13.75"/>
      <circle class="cls-10" cx="324.1" cy="149.91" r="13.75"/>
      <circle class="cls-6" cx="365.34" cy="146.76" r="16.59"/>
      <circle class="cls-10" cx="363.77" cy="145.42" r="16.59"/>
      <polygon class="cls-7" points="340.08 204.82 352.44 203.25 341.38 177.78 337.52 198.94 329.02 179.35 325.43 199.04 314.96 182.35 313.83 210.85 324.63 206.78 340.08 204.82 340.08 204.82"/>
      <path class="cls-10" d="m415.13,208.55c-6.89,20.19-32.3,35.17-62.58,35.17s-56.28-15.33-62.81-35.89c14.83-4.74,33.35-8.76,54.81-9.48,28.48-.95,52.6,4.25,70.58,10.2Z"/>
      <path class="cls-10" d="m401.24,198.85l-.8,1.48c-11.22-3.19-24.31-5.71-38.93-6.44l-1.12-4.7,16.11,1.96-.28.66,13.24,3.35-.35.62,12.13,3.06Z"/>
      <path class="cls-7" d="m400.43,200.33l-11.23,20.65-2.93-19.97-8.85,16.29-3.09-21.07-7.89,18.47-4.94-20.8c14.62.73,27.71,3.24,38.93,6.44Z"/>
      <circle class="cls-7" cx="325.67" cy="151.34" r="10.21"/>
      <circle class="cls-7" cx="364.72" cy="145.42" r="12.32"/>
      <circle class="cls-4" cx="327.05" cy="149.44" r="7"/>
      <circle class="cls-17" cx="328.73" cy="147.1" r="1.68"/>
      <circle class="cls-4" cx="364.72" cy="142.53" r="8.45"/>
      <circle class="cls-17" cx="364.22" cy="139.09" r="2.03"/>
      <path class="cls-10" d="m391.27,162.75c3.77-2.85,8.16-7.14,10.7-13.37,3.18-7.82,2.11-15.45,3.82-15.66,1.32-.16,1.96,4.35,5.35,8.79,3.6,4.71,8.58,7.1,12.61,8.4-3.06.82-7.87,2.43-12.99,5.73-8.82,5.69-12.85,12.72-16.43,11.46-.98-.34-2.31-1.45-3.06-5.35Z"/>
      <ellipse class="cls-6" cx="415.77" cy="141.12" rx="6.69" ry="13.26" transform="translate(32.03 354.49) rotate(-47.82)"/>
      <ellipse class="cls-8" cx="415.77" cy="141.12" rx="4.58" ry="9.08" transform="translate(32.03 354.49) rotate(-47.82)"/>
      <path class="cls-10" d="m301.48,174.63c-2.76-3.84-6.95-8.33-13.12-11-7.75-3.36-15.4-2.46-15.57-4.18-.13-1.32,4.39-1.86,8.91-5.15,4.79-3.49,7.29-8.41,8.69-12.41.75,3.08,2.25,7.92,5.43,13.12,5.48,8.95,12.42,13.14,11.08,16.69-.37.97-1.5,2.27-5.42,2.93Z"/>
      <ellipse class="cls-6" cx="280.42" cy="149.65" rx="13.26" ry="6.69" transform="translate(-21.14 250.09) rotate(-46.51)"/>
      <ellipse class="cls-8" cx="280.42" cy="149.65" rx="10.77" ry="5.44" transform="translate(-21.14 250.09) rotate(-46.51)"/>
    </g>
  </g>
  <g id="corps">
    <g>
      <rect class="cls-5" x="326.74" y="248.96" width="62.72" height="93.84" rx="23.06" ry="23.06"/>
      <path class="cls-22" d="m314.49,312.46v32.29c8.21-.95,13.99.58,17.81,2.23,11.37,4.88,13.55,14.19,24.43,15.77,4.49.65,8.14-.35,11.57-1.29,7.84-2.15,11.5-5.91,18.93-10.76,4.21-2.75,10.37-6.34,18.56-9.65l-1.31-26.37c-6.7,3.97-21.84,11.71-42.48,11.89-23.94.21-41.08-9.87-47.51-14.1Z"/>
      <g>
        <path class="cls-9" d="m395.22,248.98c-.11.56-2.02,9.27-8.08,10.97-1.17.33-3.3.62-14.67-5.21-8.96-4.59-9.48-5.72-12.15-5.62-5.4.2-5.99,4.88-14.41,8.51-3.76,1.62-8.92,3.85-14.2,1.75-4.4-1.75-8.06-6.18-8.66-11.55-.46-4.13.82-9.44,4.67-12.14,4.99-3.5,12.06-1.05,17.61.87,8.9,3.08,10,6.66,15.07,6.21,5.13-.46,5.36-4.25,12.65-7.36,2.1-.9,12.65-5.41,18.71-.28,5.27,4.46,3.6,13.19,3.46,13.86Z"/>
        <path class="cls-28" d="m395.22,248.98c-.11.56-2.02,9.27-8.08,10.97-1.17.33-3.3.62-14.67-5.21-8.96-4.59-9.48-5.72-12.15-5.62-5.4.2-5.99,4.88-14.41,8.51-3.76,1.62-8.92,3.85-14.2,1.75-4.4-1.75-8.06-6.18-8.66-11.55-.46-4.13.82-9.44,4.67-12.14,4.99-3.5,12.06-1.05,17.61.87,8.9,3.08,10,6.66,15.07,6.21,5.13-.46,5.36-4.25,12.65-7.36,2.1-.9,12.65-5.41,18.71-.28,5.27,4.46,3.6,13.19,3.46,13.86Z"/>
      </g>
    </g>
    <path class="cls-16" d="m314.05,322.4c-1.54,7.82-3.26,19.38-3.31,33.56-.05,14.27,1.64,17.56,2.71,19.23,9.81,15.27,41.84,13.49,45.45,5.26.74-1.69-.1-2.77.72-8.55.65-4.52,2.1-10.34,3.07-10.25,1.15.1,1.48,8.45,1.58,11.04.19,4.98-.21,5.29.22,6.28,3.38,7.78,36.59,8.1,44.22-6.68,1.31-2.54,1.55-4.91,1.11-12.62-.5-8.81-1.7-21.25-4.82-36.37-4.25,3.1-10.67,7.11-19.19,10.11-4.23,1.49-12.84,4.43-24.23,4.18-8.79-.2-15.01-2.2-23.75-5.01-6.03-1.94-14.34-5.07-23.79-10.18Z"/>
  </g>
</svg>