<?xml version="1.0" encoding="UTF-8"?>
<svg id="Calque_2" data-name="Calque 2" xmlns="http://www.w3.org/2000/svg" viewBox="0 0 156.49 114.88">
  <defs>
    <style>
      .cls-1 {
        fill: #008cdc;
      }

      .cls-2 {
        fill: #f6a428;
      }

      .cls-3 {
        fill: #fff;
      }

      .cls-4 {
        fill: #ffed00;
      }

      .cls-5 {
        fill: #ee7f00;
      }

      .cls-6 {
        fill: #211e70;
      }
    </style>
  </defs>
  <g id="tete">
    <g>
      <path class="cls-5" d="m143.46,64.12c0,3.81-.6,7.51-1.71,11.04-3.54-1.27-7.35-2.51-11.4-3.66l.8-1.48-12.13-3.06.35-.62-13.24-3.35.28-.66-16.11-1.96,1.12,4.7c-4.72-.23-9.61-.28-14.65-.1-19.77.72-36.81,4.73-50.47,9.48-.97-3.32-1.48-6.77-1.48-10.32,0-25.52,26.56-46.19,59.31-46.19s59.32,20.67,59.32,46.19Z"/>
      <circle class="cls-2" cx="52.93" cy="22.79" r="13.75"/>
      <circle class="cls-5" cx="54.02" cy="21.07" r="13.75"/>
      <circle class="cls-2" cx="95.26" cy="17.92" r="16.59"/>
      <circle class="cls-5" cx="93.69" cy="16.59" r="16.59"/>
      <polygon class="cls-3" points="70 75.98 82.36 74.42 71.3 48.95 67.44 70.1 58.94 50.51 55.35 70.2 44.88 53.51 43.75 82.02 54.55 77.94 70 75.98 70 75.98"/>
      <path class="cls-5" d="m145.05,79.71c-6.89,20.19-32.3,35.17-62.58,35.17s-56.28-15.33-62.81-35.89c14.83-4.74,33.35-8.76,54.81-9.48,28.48-.95,52.6,4.25,70.58,10.2Z"/>
      <path class="cls-5" d="m131.16,70.01l-.8,1.48c-11.22-3.19-24.31-5.71-38.93-6.44l-1.12-4.7,16.11,1.96-.28.66,13.24,3.35-.35.62,12.13,3.06Z"/>
      <path class="cls-3" d="m130.35,71.49l-11.23,20.65-2.93-19.97-8.85,16.29-3.09-21.07-7.89,18.47-4.94-20.8c14.62.73,27.71,3.24,38.93,6.44Z"/>
      <circle class="cls-3" cx="55.59" cy="22.5" r="10.21"/>
      <circle class="cls-3" cx="94.64" cy="16.59" r="12.32"/>
      <circle class="cls-1" cx="56.97" cy="20.6" r="7"/>
      <circle class="cls-6" cx="58.65" cy="18.27" r="1.68"/>
      <circle class="cls-1" cx="94.64" cy="13.69" r="8.45"/>
      <circle class="cls-6" cx="94.14" cy="10.26" r="2.03"/>
      <path class="cls-5" d="m121.19,33.91c3.77-2.85,8.16-7.14,10.7-13.37,3.18-7.82,2.11-15.45,3.82-15.66,1.32-.16,1.96,4.35,5.35,8.79,3.6,4.71,8.58,7.1,12.61,8.4-3.06.82-7.87,2.43-12.99,5.73-8.82,5.69-12.85,12.72-16.43,11.46-.98-.34-2.31-1.45-3.06-5.35Z"/>
      <ellipse class="cls-2" cx="145.69" cy="12.29" rx="6.69" ry="13.26" transform="translate(38.77 112) rotate(-47.82)"/>
      <ellipse class="cls-4" cx="145.69" cy="12.29" rx="4.58" ry="9.08" transform="translate(38.77 112) rotate(-47.82)"/>
      <path class="cls-5" d="m31.4,45.8c-2.76-3.84-6.95-8.33-13.12-11-7.75-3.36-15.4-2.46-15.57-4.18-.13-1.32,4.39-1.86,8.91-5.15,4.79-3.49,7.29-8.41,8.69-12.41.75,3.08,2.25,7.92,5.43,13.12,5.48,8.95,12.42,13.14,11.08,16.69-.37.97-1.5,2.27-5.42,2.93Z"/>
      <ellipse class="cls-2" cx="10.34" cy="20.81" rx="13.26" ry="6.69" transform="translate(-11.87 13.99) rotate(-46.51)"/>
      <ellipse class="cls-4" cx="10.34" cy="20.81" rx="10.77" ry="5.44" transform="translate(-11.87 13.99) rotate(-46.51)"/>
    </g>
  </g>
</svg>