<?xml version="1.0" standalone="no"?>
<!DOCTYPE svg PUBLIC "-//W3C//DTD SVG 20010904//EN"
 "http://www.w3.org/TR/2001/REC-SVG-20010904/DTD/svg10.dtd">
<svg version="1.0" xmlns="http://www.w3.org/2000/svg"
 width="300.000000pt" height="300.000000pt" viewBox="0 0 300.000000 300.000000"
 preserveAspectRatio="xMidYMid meet">
<metadata>
Created by potrace 1.14, written by Peter Selinger 2001-2017
</metadata>
<g transform="translate(0.000000,300.000000) scale(0.100000,-0.100000)"
fill="#000000" stroke="none">
<path d="M1304 2558 c-4 -6 -9 -61 -11 -122 -6 -155 -7 -160 -18 -168 -7 -5
-6 -8 1 -8 6 0 9 -14 6 -32 -17 -152 -19 -938 -2 -938 5 0 12 -101 14 -207 0
-29 3 -53 6 -53 3 0 6 -24 7 -53 0 -28 4 -117 7 -197 12 -267 13 -309 6 -321
-6 -8 -9 -8 -15 0 -4 8 -11 9 -18 2 -7 -5 -34 -10 -62 -12 -27 -1 -56 -7 -62
-12 -9 -6 -13 -6 -13 2 0 7 -5 9 -10 6 -15 -9 -82 -14 -242 -19 -76 -3 -143
-8 -149 -12 -8 -4 -9 -3 -5 4 4 7 3 12 -3 12 -5 0 -13 -5 -16 -10 -6 -10 -23
-8 -64 8 -8 3 -12 1 -8 -5 3 -5 0 -10 -8 -10 -8 0 -15 3 -15 7 0 12 -74 5 -95
-8 -11 -7 -13 -11 -5 -9 8 2 23 0 34 -5 10 -6 46 -10 80 -10 34 0 64 -6 68
-12 5 -8 8 -7 8 2 0 7 4 10 10 7 19 -12 50 -14 50 -3 0 6 5 7 12 2 15 -11 38
-11 55 -1 6 4 14 4 17 -1 6 -9 47 -8 64 2 7 4 12 2 12 -5 0 -7 5 -8 13 -3 6 5
32 9 57 8 25 0 48 5 52 10 5 8 8 7 8 -1 0 -7 6 -11 13 -9 45 14 68 16 61 5 -5
-8 -3 -9 7 -3 8 5 28 9 44 9 17 0 35 3 40 6 6 2 47 4 92 4 46 0 83 2 83 5 0 3
35 4 78 3 42 -1 93 2 113 6 21 5 43 5 50 0 7 -4 19 -3 25 2 8 7 14 6 19 -1 5
-8 11 -7 23 2 13 11 14 11 7 -1 -6 -11 -5 -12 6 -5 20 12 39 14 39 3 0 -6 4
-7 10 -4 14 9 80 12 85 5 2 -4 32 -8 66 -9 34 -1 66 -4 71 -7 4 -3 8 0 8 6 0
6 10 8 27 4 15 -4 37 -8 48 -8 11 -1 26 -5 33 -9 6 -5 12 -5 12 0 0 4 40 8 89
8 49 0 92 2 95 5 9 10 -6 51 -18 47 -6 -2 -23 -1 -37 4 -15 4 -31 3 -37 -3 -6
-6 -12 -6 -16 1 -5 8 -13 8 -26 1 -10 -6 -21 -6 -24 -2 -3 5 -41 8 -86 7 -44
0 -80 2 -80 5 0 5 -274 4 -452 -3 -59 -2 -112 -1 -119 4 -11 6 -20 106 -19
207 0 9 0 36 0 58 -1 23 0 46 1 50 1 5 -1 20 -4 34 -4 14 -8 54 -10 90 -2 36
-6 71 -11 78 -4 7 -2 12 4 12 7 0 8 6 1 18 -6 11 -6 24 0 35 7 11 7 17 0 17
-5 0 -10 24 -11 53 -1 59 -6 114 -15 172 -3 22 -8 76 -11 120 -5 80 -5 94 -2
118 0 6 -2 23 -6 36 -6 16 -5 21 3 17 7 -5 8 0 3 15 -5 12 -6 41 -2 64 4 24 5
51 3 61 -8 51 -9 124 -1 124 5 0 6 5 3 11 -11 17 -11 139 0 139 7 0 7 3 0 8
-14 10 -16 104 -2 95 6 -4 7 -1 2 7 -5 8 -9 95 -10 195 -1 100 -5 187 -9 193
-7 12 5 16 33 13 8 -2 10 2 5 11 -6 10 -5 11 7 1 18 -15 99 -24 99 -12 0 6 5
7 11 4 17 -11 209 -12 216 -2 3 5 9 3 14 -4 6 -9 12 -10 17 -4 4 6 18 10 32
10 14 -1 28 4 32 10 5 6 8 5 8 -3 0 -7 5 -10 10 -7 11 7 79 15 152 17 37 2 46
6 45 19 -1 13 -10 17 -37 17 -19 0 -43 -4 -52 -9 -12 -6 -18 -6 -18 0 0 7 -8
7 -24 1 -13 -5 -27 -6 -30 -3 -3 4 -6 1 -6 -6 0 -8 -5 -9 -18 -2 -11 6 -24 6
-36 -1 -9 -5 -20 -8 -23 -5 -2 3 -18 1 -34 -3 -18 -5 -31 -5 -35 2 -4 6 -10 5
-15 -3 -5 -8 -9 -9 -9 -3 0 7 -11 9 -27 7 -16 -2 -37 -6 -48 -7 -11 -2 -23 2
-27 7 -4 7 -11 7 -20 0 -17 -13 -49 -13 -67 1 -12 9 -13 8 -6 -3 6 -10 4 -12
-6 -6 -18 12 -112 12 -121 1 -3 -5 -13 -2 -22 6 -8 9 -12 18 -9 22 4 3 4 6 0
6 -3 0 -9 -5 -13 -12z"/>
<path d="M1990 2505 c0 -16 16 -20 24 -6 3 5 -1 11 -9 15 -9 3 -15 0 -15 -9z"/>
<path d="M2000 2479 c-13 -8 -13 -10 0 -19 8 -5 10 -10 4 -10 -8 0 -11 -44
-10 -144 1 -96 -3 -147 -10 -154 -7 -6 -15 -8 -18 -5 -3 4 -6 -1 -6 -11 0 -10
-5 -14 -11 -11 -5 4 -28 -5 -49 -19 -22 -14 -44 -26 -50 -26 -6 0 -9 -4 -5 -9
3 -5 1 -12 -5 -16 -19 -12 -42 -74 -46 -127 -3 -43 1 -63 23 -105 14 -28 37
-56 50 -62 13 -6 23 -15 23 -20 0 -8 28 -19 69 -27 8 -1 17 -8 21 -14 4 -7 10
-11 14 -11 32 5 36 -1 36 -51 1 -29 2 -68 3 -87 2 -38 -13 -50 -36 -27 -8 8
-17 12 -20 9 -4 -3 -19 3 -34 13 -15 10 -37 20 -48 21 -11 2 -21 8 -23 13 -2
6 -9 10 -16 10 -7 0 -26 6 -42 14 -16 8 -46 17 -66 20 -30 5 -38 3 -38 -10 0
-8 4 -13 9 -9 5 3 12 1 16 -5 3 -5 12 -10 20 -10 8 0 34 -13 58 -30 25 -16 50
-30 56 -30 6 0 11 -5 11 -12 0 -6 3 -8 6 -5 4 4 25 -7 47 -23 22 -16 44 -27
49 -24 4 3 8 0 8 -5 0 -6 7 -11 15 -11 8 0 15 -5 15 -11 0 -5 4 -7 10 -4 14 9
20 -27 23 -142 1 -57 5 -103 9 -103 12 0 -14 -61 -36 -85 -49 -53 -66 -73 -66
-79 0 -4 -9 -17 -21 -29 -19 -20 -80 -105 -104 -145 -5 -9 -14 -20 -18 -23
-13 -9 4 -39 22 -39 20 0 43 14 42 26 0 5 8 18 17 29 18 21 22 28 22 45 0 6 7
10 17 10 9 0 13 3 10 7 -9 9 26 62 76 115 9 10 17 25 17 33 0 8 3 15 8 15 10
0 32 51 26 61 -10 17 5 9 32 -16 15 -14 33 -24 40 -21 8 3 11 -1 8 -9 -3 -8
10 -30 30 -50 20 -20 36 -34 36 -31 0 2 23 -18 52 -45 29 -27 58 -49 65 -49 7
0 13 -5 13 -10 0 -6 6 -6 14 2 11 11 13 26 7 61 0 4 -6 7 -12 7 -11 0 -91 53
-117 78 -7 6 -20 12 -28 12 -8 0 -24 11 -36 25 -12 14 -28 25 -35 25 -7 0 -13
5 -13 11 0 5 -4 8 -9 5 -5 -3 -11 1 -15 9 -3 8 -1 17 5 21 5 3 6 11 2 17 -5 7
-8 49 -8 95 1 45 -3 82 -7 82 -4 0 -3 11 2 25 6 16 6 26 -1 31 -7 4 -7 10 0
18 7 8 7 16 0 23 -11 11 -1 46 11 38 5 -3 12 1 17 8 4 7 23 19 41 26 17 8 32
16 32 20 0 3 20 15 45 26 25 11 45 22 45 26 0 3 18 12 40 19 22 7 40 16 40 21
0 4 11 10 24 13 29 7 41 33 22 51 -11 11 -17 11 -40 0 -14 -8 -26 -12 -26 -9
0 3 -13 -4 -29 -15 -16 -12 -34 -21 -40 -21 -6 0 -11 -3 -11 -7 0 -5 -18 -16
-40 -27 -21 -10 -41 -25 -44 -33 -3 -8 -10 -12 -15 -9 -5 3 -11 -1 -15 -9 -3
-8 -12 -15 -20 -15 -8 0 -16 -4 -18 -9 -1 -5 -9 -11 -17 -13 -14 -3 -17 6 -27
77 -12 89 -13 85 43 106 57 22 123 83 136 126 36 126 21 206 -52 282 -25 25
-57 48 -71 49 -14 2 -29 8 -34 13 -6 5 -17 9 -26 9 -21 0 -40 33 -30 50 5 8 6
19 2 24 -3 6 -7 36 -9 66 -2 30 -5 61 -8 68 -2 6 1 12 7 12 7 0 6 5 -2 15 -7
8 -10 24 -7 35 6 24 -4 32 -23 19z m170 -406 c14 -14 18 -22 10 -17 -8 4 -5
-5 8 -20 12 -16 19 -32 16 -37 -3 -5 0 -9 6 -9 6 0 9 -4 5 -9 -3 -5 -2 -12 3
-15 14 -9 5 -64 -18 -108 -53 -102 -203 -143 -275 -75 -7 6 -21 20 -31 29 -42
37 -49 53 -49 110 -1 32 3 58 8 58 4 0 6 4 3 8 -7 12 82 112 100 112 8 0 14 4
14 9 0 32 163 3 200 -36z"/>
</g>
</svg>
